<?xml version="1.0" encoding="UTF-8"?>
<!DOCTYPE svg PUBLIC "-//W3C//DTD SVG 1.1//EN" "http://www.w3.org/Graphics/SVG/1.1/DTD/svg11.dtd">
<svg xmlns="http://www.w3.org/2000/svg" version="1.1" width="2691px" height="1058px" style="shape-rendering:geometricPrecision; text-rendering:geometricPrecision; image-rendering:optimizeQuality; fill-rule:evenodd; clip-rule:evenodd" xmlns:xlink="http://www.w3.org/1999/xlink">
<g><path style="opacity:0.998" fill="#179fa9" d="M 390.5,-0.5 C 391.5,-0.5 392.5,-0.5 393.5,-0.5C 424.865,14.6819 456.198,30.1819 487.5,46C 517.302,62.4989 544.136,82.9989 568,107.5C 581.095,122.008 591.428,138.341 599,156.5C 611.734,189.285 606.234,218.451 582.5,244C 585.259,249.439 587.926,254.939 590.5,260.5C 617.946,280.695 634.78,307.695 641,341.5C 643.811,354.034 645.645,366.701 646.5,379.5C 646.216,385.417 646.883,391.084 648.5,396.5C 649.197,408.831 649.864,421.164 650.5,433.5C 686.268,434.043 721.934,436.209 757.5,440C 767.002,439.992 773.835,444.159 778,452.5C 782.426,465.204 785.76,478.204 788,491.5C 806.114,606.413 820.947,721.746 832.5,837.5C 833.337,852.859 834.504,868.192 836,883.5C 836.546,886.379 837.379,889.046 838.5,891.5C 844.152,938.688 849.818,986.021 855.5,1033.5C 855.129,1037.75 853.129,1040.92 849.5,1043C 603.504,1044.94 357.504,1045.94 111.5,1046C 107.047,1043.93 105.047,1040.43 105.5,1035.5C 112.898,967.515 119.898,899.515 126.5,831.5C 127.809,829.429 128.475,826.929 128.5,824C 129.115,817.178 129.448,810.345 129.5,803.5C 130.77,784.797 132.437,766.13 134.5,747.5C 135.222,747.082 135.722,746.416 136,745.5C 137.363,734.535 138.197,723.535 138.5,712.5C 145.228,632.781 155.061,553.448 168,474.5C 169.59,465.801 172.257,457.468 176,449.5C 178.264,446.567 181.098,444.4 184.5,443C 205.578,438.436 226.911,435.769 248.5,435C 268.823,433.862 289.157,433.028 309.5,432.5C 308.665,394.172 315.165,357.172 329,321.5C 334.758,309.64 341.258,298.307 348.5,287.5C 336.682,267.379 323.015,248.546 307.5,231C 296.272,222.215 283.939,215.215 270.5,210C 264.889,203.912 265.222,198.245 271.5,193C 277.226,191.896 282.56,192.896 287.5,196C 309.203,205.042 326.703,219.209 340,238.5C 353.276,258.774 366.943,278.774 381,298.5C 389.361,309.04 400.194,315.04 413.5,316.5C 426.682,316.153 434.515,309.487 437,296.5C 446.51,289.745 452.843,292.078 456,303.5C 466.302,318.578 479.468,321.745 495.5,313C 501.534,307.436 505.367,300.602 507,292.5C 511.692,287.784 516.859,287.284 522.5,291C 530.55,303.727 541.55,312.727 555.5,318C 569.472,320.368 577.638,314.535 580,300.5C 580.512,294.719 579.846,289.052 578,283.5C 564.966,247.411 546.299,214.744 522,185.5C 517.92,176.62 520.586,171.287 530,169.5C 531.967,169.542 533.801,170.042 535.5,171C 549.605,188.036 562.105,206.203 573,225.5C 585.719,209.33 589.052,191.33 583,171.5C 574.154,145.645 559.321,123.811 538.5,106C 519.744,89.4532 499.411,75.1199 477.5,63C 447.29,47.7283 416.957,32.7283 386.5,18C 381.617,12.9421 381.284,7.60873 385.5,2C 387.315,1.24316 388.981,0.409824 390.5,-0.5 Z M 621.5,343.5 C 621.676,346.727 622.343,349.727 623.5,352.5C 627.598,379.004 629.931,405.671 630.5,432.5C 529.841,430.308 429.174,429.974 328.5,431.5C 329.505,412.447 331.171,393.447 333.5,374.5C 334.863,370.368 335.863,366.035 336.5,361.5C 337.707,357.213 338.707,352.88 339.5,348.5C 341.405,344.784 342.739,340.784 343.5,336.5C 348.529,325.446 354.362,314.78 361,304.5C 373.704,323.353 391.37,334.02 414,336.5C 426.584,336.088 437.251,331.421 446,322.5C 464.519,339.877 484.685,342.043 506.5,329C 511.363,325.77 515.196,321.604 518,316.5C 531.28,332.058 548.114,339.225 568.5,338C 579.662,336.095 587.996,330.262 593.5,320.5C 595.928,316.901 597.594,312.901 598.5,308.5C 599.196,304.548 599.696,300.548 600,296.5C 610.992,310.479 618.158,326.146 621.5,343.5 Z M 616.5,451.5 C 620.97,452.486 625.637,452.819 630.5,452.5C 630.169,482.338 630.502,512.005 631.5,541.5C 633.823,548.557 638.49,550.724 645.5,548C 646.71,546.961 647.71,545.794 648.5,544.5C 649.222,544.082 649.722,543.416 650,542.5C 650.5,512.502 650.667,482.502 650.5,452.5C 677.115,453.823 703.782,455.323 730.5,457C 740.579,457.62 750.579,458.786 760.5,460.5C 760.263,461.791 760.596,462.791 761.5,463.5C 761.721,466.067 762.388,468.401 763.5,470.5C 769.5,500.506 774.833,530.506 779.5,560.5C 779.624,565.049 780.291,569.382 781.5,573.5C 800.117,723.724 817.784,874.057 834.5,1024.5C 598.5,1025.1 362.5,1025.77 126.5,1026.5C 132.427,972.226 137.761,917.893 142.5,863.5C 143.577,857.688 144.243,851.688 144.5,845.5C 145.694,837.555 146.361,829.555 146.5,821.5C 147.617,816.027 148.283,810.36 148.5,804.5C 156.133,727.801 164.133,651.134 172.5,574.5C 175.398,555.668 178.064,536.668 180.5,517.5C 182.157,508.559 183.49,499.559 184.5,490.5C 185.531,488.039 186.198,485.373 186.5,482.5C 186.5,481.833 186.5,481.167 186.5,480.5C 187.407,478.343 188.073,476.01 188.5,473.5C 188.5,472.833 188.5,472.167 188.5,471.5C 189.458,469.698 190.125,467.698 190.5,465.5C 190.624,463.418 191.624,461.918 193.5,461C 199.107,459.677 204.774,458.677 210.5,458C 239.77,455.131 269.103,453.298 298.5,452.5C 301.833,452.5 305.167,452.5 308.5,452.5C 308.17,468.675 308.504,484.675 309.5,500.5C 309.096,516.543 309.596,532.543 311,548.5C 317,556.5 323,556.5 329,548.5C 329.346,546.782 329.846,545.115 330.5,543.5C 329.061,512.884 328.394,482.217 328.5,451.5C 424.499,450.23 520.499,450.23 616.5,451.5 Z M 679.5,797.5 C 671.5,797.5 663.5,797.5 655.5,797.5C 655.5,764.167 655.5,730.833 655.5,697.5C 655.672,685.939 661.338,679.106 672.5,677C 704.654,674.484 722.154,689.318 725,721.5C 727.762,744.389 722.429,765.055 709,783.5C 700.981,791.9 691.147,796.567 679.5,797.5 Z M 664.5,811.5 C 675.54,811.215 686.54,811.715 697.5,813C 723.75,818.582 740.25,834.415 747,860.5C 750.294,875.329 751.294,890.329 750,905.5C 747.064,933.91 731.564,950.41 703.5,955C 692.119,956.852 680.785,956.519 669.5,954C 661.599,951.403 657.099,945.903 656,937.5C 655.5,895.835 655.333,854.168 655.5,812.5C 658.713,812.81 661.713,812.477 664.5,811.5 Z"/></g>
<g><path style="opacity:0.733" fill="#5db9c1" d="M 598.5,308.5 C 597.594,312.901 595.928,316.901 593.5,320.5C 593.34,318.801 593.506,317.134 594,315.5C 595.352,312.893 596.852,310.56 598.5,308.5 Z"/></g>
<g><path style="opacity:0.733" fill="#53b7bf" d="M 343.5,336.5 C 342.739,340.784 341.405,344.784 339.5,348.5C 339.897,343.974 341.23,339.974 343.5,336.5 Z"/></g>
<g><path style="opacity:0.937" fill="#6abfc7" d="M 621.5,343.5 C 623.388,345.988 624.055,348.988 623.5,352.5C 622.343,349.727 621.676,346.727 621.5,343.5 Z"/></g>
<g><path style="opacity:1" fill="#5fbbc2" d="M 336.5,361.5 C 335.863,366.035 334.863,370.368 333.5,374.5C 332.965,369.688 333.965,365.355 336.5,361.5 Z"/></g>
<g><path style="opacity:0.861" fill="#56b9c1" d="M 646.5,379.5 C 647.617,384.973 648.283,390.64 648.5,396.5C 646.883,391.084 646.216,385.417 646.5,379.5 Z"/></g>
<g><path style="opacity:0.996" fill="#1c9faa" d="M 1047.5,428.5 C 1032.17,428.5 1016.83,428.5 1001.5,428.5C 1001.18,436.019 1001.51,443.352 1002.5,450.5C 1016.5,450.5 1030.5,450.5 1044.5,450.5C 1044.81,456.758 1044.48,462.924 1043.5,469C 1029.84,469.5 1016.17,469.667 1002.5,469.5C 1002.5,480.833 1002.5,492.167 1002.5,503.5C 994.167,503.5 985.833,503.5 977.5,503.5C 977.333,472.498 977.5,441.498 978,410.5C 1001.09,409.506 1024.26,409.173 1047.5,409.5C 1047.5,415.833 1047.5,422.167 1047.5,428.5 Z"/></g>
<g><path style="opacity:0.322" fill="#6dc5cb" d="M 1184.5,410.5 C 1160.5,410.5 1136.5,410.5 1112.5,410.5C 1112.5,441.5 1112.5,472.5 1112.5,503.5C 1111.5,472.338 1111.17,441.004 1111.5,409.5C 1136.01,409.169 1160.34,409.502 1184.5,410.5 Z"/></g>
<g><path style="opacity:0.994" fill="#0b9da8" d="M 1184.5,410.5 C 1185.83,416.568 1185.83,422.734 1184.5,429C 1168.17,429.5 1151.84,429.667 1135.5,429.5C 1135.19,435.425 1135.53,441.259 1136.5,447C 1150.83,447.5 1165.16,447.667 1179.5,447.5C 1179.5,453.5 1179.5,459.5 1179.5,465.5C 1164.66,465.171 1149.99,465.504 1135.5,466.5C 1135.5,472.5 1135.5,478.5 1135.5,484.5C 1152.5,484.5 1169.5,484.5 1186.5,484.5C 1186.5,490.833 1186.5,497.167 1186.5,503.5C 1161.83,503.5 1137.17,503.5 1112.5,503.5C 1112.5,472.5 1112.5,441.5 1112.5,410.5C 1136.5,410.5 1160.5,410.5 1184.5,410.5 Z"/></g>
<g><path style="opacity:0.994" fill="#189ea9" d="M 1255.5,409.5 C 1271.5,409.333 1287.5,409.5 1303.5,410C 1317.08,409.863 1326.92,415.697 1333,427.5C 1335.57,440.532 1330.74,449.365 1318.5,454C 1334.55,459.937 1340.05,471.104 1335,487.5C 1329.82,496.518 1321.99,501.685 1311.5,503C 1292.5,503.5 1273.5,503.667 1254.5,503.5C 1254.17,472.093 1254.51,440.76 1255.5,409.5 Z M 1279.5,428.5 C 1286.84,428.334 1294.17,428.5 1301.5,429C 1308.55,431.699 1310.38,436.532 1307,443.5C 1306.1,444.701 1304.93,445.535 1303.5,446C 1295.57,447.363 1287.57,447.863 1279.5,447.5C 1279.5,441.167 1279.5,434.833 1279.5,428.5 Z M 1278.5,464.5 C 1288.32,463.927 1297.98,464.76 1307.5,467C 1312.45,471.643 1312.79,476.643 1308.5,482C 1307.17,482.667 1305.83,483.333 1304.5,484C 1296.25,484.183 1288.09,484.683 1280,485.5C 1278.54,478.677 1278.04,471.677 1278.5,464.5 Z"/></g>
<g><path style="opacity:0.322" fill="#69c3c9" d="M 1449.5,410.5 C 1434.5,410.5 1419.5,410.5 1404.5,410.5C 1404.5,441.5 1404.5,472.5 1404.5,503.5C 1403.5,472.338 1403.17,441.004 1403.5,409.5C 1419.01,409.17 1434.34,409.504 1449.5,410.5 Z"/></g>
<g><path style="opacity:0.994" fill="#0c9da8" d="M 1449.5,410.5 C 1467.1,410.955 1477.94,419.622 1482,436.5C 1484.83,459.323 1475,472.823 1452.5,477C 1444.17,477.5 1435.84,477.666 1427.5,477.5C 1427.5,486.167 1427.5,494.833 1427.5,503.5C 1419.83,503.5 1412.17,503.5 1404.5,503.5C 1404.5,472.5 1404.5,441.5 1404.5,410.5C 1419.5,410.5 1434.5,410.5 1449.5,410.5 Z M 1427.5,429.5 C 1435.92,429.094 1444.25,429.594 1452.5,431C 1459.88,436.788 1461.38,443.955 1457,452.5C 1455.27,454.617 1453.1,456.117 1450.5,457C 1442.9,458.356 1435.24,458.856 1427.5,458.5C 1427.5,448.833 1427.5,439.167 1427.5,429.5 Z"/></g>
<g><path style="opacity:0.322" fill="#69c3c9" d="M 1594.5,410.5 C 1579.17,410.5 1563.83,410.5 1548.5,410.5C 1548.5,441.5 1548.5,472.5 1548.5,503.5C 1547.5,472.338 1547.17,441.004 1547.5,409.5C 1563.34,409.17 1579.01,409.504 1594.5,410.5 Z"/></g>
<g><path style="opacity:0.993" fill="#0c9da8" d="M 1594.5,410.5 C 1616.07,410.764 1627.41,421.598 1628.5,443C 1628.57,456.034 1623.23,466.2 1612.5,473.5C 1618.64,483.468 1624.97,493.301 1631.5,503C 1622.17,503.667 1612.83,503.667 1603.5,503C 1599.29,494.754 1594.96,486.587 1590.5,478.5C 1584.2,477.504 1577.87,477.17 1571.5,477.5C 1571.5,486.167 1571.5,494.833 1571.5,503.5C 1563.83,503.5 1556.17,503.5 1548.5,503.5C 1548.5,472.5 1548.5,441.5 1548.5,410.5C 1563.83,410.5 1579.17,410.5 1594.5,410.5 Z M 1571.5,429.5 C 1580.58,429.086 1589.58,429.586 1598.5,431C 1605.36,435.957 1607.2,442.457 1604,450.5C 1601.75,455.369 1597.92,457.869 1592.5,458C 1585.51,458.5 1578.51,458.666 1571.5,458.5C 1571.5,448.833 1571.5,439.167 1571.5,429.5 Z"/></g>
<g><path style="opacity:0.996" fill="#109da8" d="M 1765.5,447.5 C 1765.5,453.5 1765.5,459.5 1765.5,465.5C 1750.66,465.171 1735.99,465.504 1721.5,466.5C 1721.5,472.5 1721.5,478.5 1721.5,484.5C 1737.99,485.497 1754.66,485.83 1771.5,485.5C 1771.5,491.5 1771.5,497.5 1771.5,503.5C 1746.83,503.5 1722.17,503.5 1697.5,503.5C 1697.5,472.167 1697.5,440.833 1697.5,409.5C 1721.83,409.5 1746.17,409.5 1770.5,409.5C 1770.5,416.167 1770.5,422.833 1770.5,429.5C 1754.17,429.5 1737.83,429.5 1721.5,429.5C 1721.5,435.5 1721.5,441.5 1721.5,447.5C 1736.17,447.5 1750.83,447.5 1765.5,447.5 Z"/></g>
<g><path style="opacity:0.322" fill="#5fc0c6" d="M 1861.5,410.5 C 1854.83,410.5 1848.17,410.5 1841.5,410.5C 1841.5,441.5 1841.5,472.5 1841.5,503.5C 1840.5,472.338 1840.17,441.004 1840.5,409.5C 1847.69,409.175 1854.69,409.509 1861.5,410.5 Z"/></g>
<g><path style="opacity:0.995" fill="#0c9da8" d="M 1861.5,410.5 C 1862.79,411.29 1863.96,412.29 1865,413.5C 1878.08,431.063 1890.91,448.73 1903.5,466.5C 1903.56,467.043 1903.89,467.376 1904.5,467.5C 1905.5,448.512 1905.83,429.512 1905.5,410.5C 1912.5,410.5 1919.5,410.5 1926.5,410.5C 1927.5,441.329 1927.83,472.329 1927.5,503.5C 1920.16,503.666 1912.83,503.5 1905.5,503C 1891.59,484.604 1877.92,466.104 1864.5,447.5C 1864.44,446.957 1864.11,446.624 1863.5,446.5C 1862.5,465.488 1862.17,484.488 1862.5,503.5C 1855.5,503.5 1848.5,503.5 1841.5,503.5C 1841.5,472.5 1841.5,441.5 1841.5,410.5C 1848.17,410.5 1854.83,410.5 1861.5,410.5 Z"/></g>
<g><path style="opacity:0.322" fill="#65c2c8" d="M 1926.5,410.5 C 1919.5,410.5 1912.5,410.5 1905.5,410.5C 1905.83,429.512 1905.5,448.512 1904.5,467.5C 1903.89,467.376 1903.56,467.043 1903.5,466.5C 1904.5,447.674 1904.83,428.674 1904.5,409.5C 1912.02,409.175 1919.35,409.508 1926.5,410.5 Z"/></g>
<g><path style="opacity:0.322" fill="#6dc5cb" d="M 2071.5,410.5 C 2047.5,410.5 2023.5,410.5 1999.5,410.5C 1999.5,441.5 1999.5,472.5 1999.5,503.5C 1998.5,472.338 1998.17,441.004 1998.5,409.5C 2023.01,409.169 2047.34,409.502 2071.5,410.5 Z"/></g>
<g><path style="opacity:0.994" fill="#0b9da8" d="M 2071.5,410.5 C 2072.83,416.568 2072.83,422.734 2071.5,429C 2055.17,429.5 2038.84,429.667 2022.5,429.5C 2022.19,435.425 2022.53,441.259 2023.5,447C 2037.83,447.5 2052.16,447.667 2066.5,447.5C 2066.5,453.5 2066.5,459.5 2066.5,465.5C 2051.66,465.171 2036.99,465.504 2022.5,466.5C 2022.5,472.5 2022.5,478.5 2022.5,484.5C 2039.5,484.5 2056.5,484.5 2073.5,484.5C 2073.5,490.833 2073.5,497.167 2073.5,503.5C 2048.83,503.5 2024.17,503.5 1999.5,503.5C 1999.5,472.5 1999.5,441.5 1999.5,410.5C 2023.5,410.5 2047.5,410.5 2071.5,410.5 Z"/></g>
<g><path style="opacity:0.991" fill="#099da7" d="M 2140.5,410.5 C 2148.17,410.5 2155.83,410.5 2163.5,410.5C 2163.17,429.341 2163.5,448.007 2164.5,466.5C 2166.59,479.556 2174.26,485.389 2187.5,484C 2196.13,481.953 2200.96,476.453 2202,467.5C 2202.5,448.503 2202.67,429.503 2202.5,410.5C 2210.17,410.5 2217.83,410.5 2225.5,410.5C 2225.5,430.5 2225.5,450.5 2225.5,470.5C 2223.02,488.815 2212.69,499.982 2194.5,504C 2173.97,508.053 2157.47,501.886 2145,485.5C 2143.27,481.637 2141.93,477.637 2141,473.5C 2140.5,452.503 2140.33,431.503 2140.5,410.5 Z"/></g>
<g><path style="opacity:0.38" fill="#5fbec5" d="M 2140.5,410.5 C 2148.32,409.508 2156.32,409.174 2164.5,409.5C 2164.5,428.5 2164.5,447.5 2164.5,466.5C 2163.5,448.007 2163.17,429.341 2163.5,410.5C 2155.83,410.5 2148.17,410.5 2140.5,410.5 Z"/></g>
<g><path style="opacity:0.227" fill="#78cad0" d="M 2202.5,410.5 C 2210.32,409.508 2218.32,409.174 2226.5,409.5C 2226.83,430.007 2226.5,450.34 2225.5,470.5C 2225.5,450.5 2225.5,430.5 2225.5,410.5C 2217.83,410.5 2210.17,410.5 2202.5,410.5 Z"/></g>
<g><path style="opacity:0.995" fill="#119ea8" d="M 2296.5,409.5 C 2312.17,409.333 2327.84,409.5 2343.5,410C 2371.86,413.86 2382.36,429.693 2375,457.5C 2371.89,464.279 2367.05,469.445 2360.5,473C 2366.96,482.748 2373.29,492.582 2379.5,502.5C 2370.52,503.665 2361.52,503.832 2352.5,503C 2347.78,495.071 2343.45,486.904 2339.5,478.5C 2333.2,477.504 2326.87,477.17 2320.5,477.5C 2320.5,486.167 2320.5,494.833 2320.5,503.5C 2312.5,503.5 2304.5,503.5 2296.5,503.5C 2296.5,472.167 2296.5,440.833 2296.5,409.5 Z M 2320.5,429.5 C 2329.58,429.086 2338.58,429.586 2347.5,431C 2354.72,436.815 2356.22,443.982 2352,452.5C 2350.27,454.617 2348.1,456.117 2345.5,457C 2337.24,458.37 2328.9,458.87 2320.5,458.5C 2320.5,448.833 2320.5,439.167 2320.5,429.5 Z"/></g>
<g><path style="opacity:0.055" fill="#a4dbdf" d="M 1047.5,428.5 C 1032.68,429.496 1017.68,429.829 1002.5,429.5C 1002.5,436.5 1002.5,443.5 1002.5,450.5C 1001.51,443.352 1001.18,436.019 1001.5,428.5C 1016.83,428.5 1032.17,428.5 1047.5,428.5 Z"/></g>
<g><path style="opacity:0.243" fill="#61c1c8" d="M 1864.5,447.5 C 1863.83,466.167 1863.17,484.833 1862.5,503.5C 1862.17,484.488 1862.5,465.488 1863.5,446.5C 1864.11,446.624 1864.44,446.957 1864.5,447.5 Z"/></g>
<g><path style="opacity:0.506" fill="#89d0d5" d="M 298.5,452.5 C 301.962,451.518 305.629,451.185 309.5,451.5C 309.5,467.833 309.5,484.167 309.5,500.5C 308.504,484.675 308.17,468.675 308.5,452.5C 305.167,452.5 301.833,452.5 298.5,452.5 Z"/></g>
<g><path style="opacity:0.031" fill="#d2edf0" d="M 616.5,451.5 C 621.5,451.5 626.5,451.5 631.5,451.5C 631.5,481.5 631.5,511.5 631.5,541.5C 630.502,512.005 630.169,482.338 630.5,452.5C 625.637,452.819 620.97,452.486 616.5,451.5 Z"/></g>
<g><path style="opacity:0.749" fill="#2aabb4" d="M 650.5,452.5 C 650.667,482.502 650.5,512.502 650,542.5C 649.722,543.416 649.222,544.082 648.5,544.5C 649.144,513.693 649.811,483.027 650.5,452.5 Z"/></g>
<g><path style="opacity:0.902" fill="#6dc0c7" d="M 761.5,463.5 C 763.344,465.279 764.01,467.612 763.5,470.5C 762.388,468.401 761.721,466.067 761.5,463.5 Z"/></g>
<g><path style="opacity:0.184" fill="#6fc7cd" d="M 1179.5,447.5 C 1180.49,453.645 1180.82,459.978 1180.5,466.5C 1165.5,466.5 1150.5,466.5 1135.5,466.5C 1149.99,465.504 1164.66,465.171 1179.5,465.5C 1179.5,459.5 1179.5,453.5 1179.5,447.5 Z"/></g>
<g><path style="opacity:0.184" fill="#7eccd2" d="M 1765.5,447.5 C 1766.49,453.645 1766.82,459.978 1766.5,466.5C 1751.5,466.5 1736.5,466.5 1721.5,466.5C 1735.99,465.504 1750.66,465.171 1765.5,465.5C 1765.5,459.5 1765.5,453.5 1765.5,447.5 Z"/></g>
<g><path style="opacity:0.184" fill="#6fc7cd" d="M 2066.5,447.5 C 2067.49,453.645 2067.82,459.978 2067.5,466.5C 2052.5,466.5 2037.5,466.5 2022.5,466.5C 2036.99,465.504 2051.66,465.171 2066.5,465.5C 2066.5,459.5 2066.5,453.5 2066.5,447.5 Z"/></g>
<g><path style="opacity:0.804" fill="#71c2c8" d="M 190.5,465.5 C 190.125,467.698 189.458,469.698 188.5,471.5C 188.025,468.918 188.692,466.918 190.5,465.5 Z"/></g>
<g><path style="opacity:0.804" fill="#71c2c9" d="M 188.5,473.5 C 188.073,476.01 187.407,478.343 186.5,480.5C 185.99,477.612 186.656,475.279 188.5,473.5 Z"/></g>
<g><path style="opacity:0.322" fill="#53bcc3" d="M 1721.5,484.5 C 1738.5,484.5 1755.5,484.5 1772.5,484.5C 1772.82,491.022 1772.49,497.355 1771.5,503.5C 1771.5,497.5 1771.5,491.5 1771.5,485.5C 1754.66,485.83 1737.99,485.497 1721.5,484.5 Z"/></g>
<g><path style="opacity:0.757" fill="#70c3ca" d="M 186.5,482.5 C 186.198,485.373 185.531,488.039 184.5,490.5C 184.111,487.447 184.777,484.78 186.5,482.5 Z"/></g>
<g><path style="opacity:1" fill="#36aca4" d="M 2567.5,552.5 C 2567.5,551.833 2567.5,551.167 2567.5,550.5C 2567.66,548.473 2567.5,546.473 2567,544.5C 2566.59,544.043 2566.09,543.709 2565.5,543.5C 2561.9,545.253 2558.23,546.587 2554.5,547.5C 2556.66,546.872 2558.33,545.539 2559.5,543.5C 2563.75,541.874 2568.08,540.541 2572.5,539.5C 2571.64,544.207 2569.97,548.541 2567.5,552.5 Z"/></g>
<g><path style="opacity:0.094" fill="#acddda" d="M 2559.5,543.5 C 2558.33,545.539 2556.66,546.872 2554.5,547.5C 2554.17,547.5 2553.83,547.5 2553.5,547.5C 2555.03,545.631 2557.03,544.298 2559.5,543.5 Z"/></g>
<g><path style="opacity:1" fill="#acdcdb" d="M 2553.5,547.5 C 2551.68,549.448 2549.35,550.448 2546.5,550.5C 2548.43,548.707 2550.76,547.707 2553.5,547.5 Z"/></g>
<g><path style="opacity:1" fill="#0ba191" d="M 2567.5,550.5 C 2563.72,554.205 2560.39,553.705 2557.5,549C 2556.55,548.517 2555.55,548.351 2554.5,548.5C 2554.5,548.167 2554.5,547.833 2554.5,547.5C 2558.23,546.587 2561.9,545.253 2565.5,543.5C 2566.09,543.709 2566.59,544.043 2567,544.5C 2567.5,546.473 2567.66,548.473 2567.5,550.5 Z"/></g>
<g><path style="opacity:1" fill="#9ed3d3" d="M 2566.5,564.5 C 2566.62,561.14 2566.95,557.807 2567.5,554.5C 2567.5,553.833 2567.5,553.167 2567.5,552.5C 2569.97,548.541 2571.64,544.207 2572.5,539.5C 2568.08,540.541 2563.75,541.874 2559.5,543.5C 2563.43,539.566 2568.1,538.233 2573.5,539.5C 2573.83,540.167 2574.17,540.833 2574.5,541.5C 2571.72,549.225 2569.05,556.891 2566.5,564.5 Z"/></g>
<g><path style="opacity:1" fill="#50b3bc" d="M 180.5,517.5 C 178.064,536.668 175.398,555.668 172.5,574.5C 172.852,565.147 173.519,555.814 174.5,546.5C 176.417,537.582 177.917,528.582 179,519.5C 179.278,518.584 179.778,517.918 180.5,517.5 Z"/></g>
<g><path style="opacity:1" fill="#51b1af" d="M 2553.5,547.5 C 2553.83,547.5 2554.17,547.5 2554.5,547.5C 2554.5,547.833 2554.5,548.167 2554.5,548.5C 2552.39,550.206 2550.05,551.539 2547.5,552.5C 2544.83,553.499 2544.16,555.166 2545.5,557.5C 2543.14,557.337 2540.81,557.503 2538.5,558C 2533.78,560.76 2528.78,562.76 2523.5,564C 2522.29,565.376 2520.96,566.542 2519.5,567.5C 2520.08,565.589 2521.08,563.922 2522.5,562.5C 2526.16,562.997 2529.16,561.831 2531.5,559C 2537.71,558.115 2542.71,555.281 2546.5,550.5C 2549.35,550.448 2551.68,549.448 2553.5,547.5 Z"/></g>
<g><path style="opacity:0.071" fill="#a6d7d6" d="M 2546.5,550.5 C 2542.71,555.281 2537.71,558.115 2531.5,559C 2529.16,561.831 2526.16,562.997 2522.5,562.5C 2530.83,559.345 2538.83,555.345 2546.5,550.5 Z"/></g>
<g><path style="opacity:1" fill="#109d95" d="M 2554.5,548.5 C 2555.55,548.351 2556.55,548.517 2557.5,549C 2560.39,553.705 2563.72,554.205 2567.5,550.5C 2567.5,551.167 2567.5,551.833 2567.5,552.5C 2567.5,553.167 2567.5,553.833 2567.5,554.5C 2565.49,556.707 2564.49,559.374 2564.5,562.5C 2563.02,562.762 2561.69,562.429 2560.5,561.5C 2561.39,558.916 2561.73,556.249 2561.5,553.5C 2559.83,553.5 2558.17,553.5 2556.5,553.5C 2556.32,556.216 2555.82,558.883 2555,561.5C 2554.67,561.167 2554.33,560.833 2554,560.5C 2553.08,567.276 2553.41,573.943 2555,580.5C 2557.36,577.107 2559.2,573.44 2560.5,569.5C 2560.78,571.987 2560.78,574.653 2560.5,577.5C 2559.99,581.553 2559.15,585.553 2558,589.5C 2554.27,600.992 2550.44,612.325 2546.5,623.5C 2544.26,625.647 2542.26,627.98 2540.5,630.5C 2542.17,623.627 2543.34,616.627 2544,609.5C 2547.85,603.785 2550.02,597.452 2550.5,590.5C 2550.5,588.833 2550.5,587.167 2550.5,585.5C 2549.18,585.67 2548.01,585.337 2547,584.5C 2545.98,575.77 2546.81,567.27 2549.5,559C 2548,557.079 2547.33,554.912 2547.5,552.5C 2550.05,551.539 2552.39,550.206 2554.5,548.5 Z"/></g>
<g><path style="opacity:0.999" fill="#109da8" d="M 450.5,593.5 C 449.502,627.996 449.168,662.663 449.5,697.5C 467.674,697.83 485.674,697.497 503.5,696.5C 518.881,695.723 531.715,689.723 542,678.5C 545.525,672.652 547.359,666.318 547.5,659.5C 552.239,658.407 554.239,660.24 553.5,665C 552.506,694.672 552.506,724.172 553.5,753.5C 551.647,754.76 549.814,754.76 548,753.5C 546.267,732.427 535.101,719.261 514.5,714C 508.581,712.559 502.581,711.726 496.5,711.5C 481.009,710.504 465.342,710.17 449.5,710.5C 449.168,749.004 449.501,787.337 450.5,825.5C 450.839,834.361 454.839,840.861 462.5,845C 484.08,847.485 505.413,846.151 526.5,841C 554.566,831.266 572.733,812.099 581,783.5C 583.825,781.916 585.992,782.582 587.5,785.5C 584.217,809.029 582.383,832.696 582,856.5C 581.5,858.333 580.333,859.5 578.5,860C 506.164,860.833 433.831,860.667 361.5,859.5C 360.39,857.504 360.724,855.671 362.5,854C 367.833,853.667 373.167,853.333 378.5,853C 387.757,852.408 393.257,847.575 395,838.5C 396.145,795.691 396.645,752.858 396.5,710C 396.645,667.142 396.145,624.309 395,581.5C 392.393,572.235 386.226,567.402 376.5,567C 371.833,566.667 367.167,566.333 362.5,566C 360.339,564.236 360.172,562.403 362,560.5C 430.763,559.335 499.596,559.169 568.5,560C 569.667,560.5 570.5,561.333 571,562.5C 571.667,584.503 572,606.503 572,628.5C 569.888,630.922 567.888,630.922 566,628.5C 557.528,596.846 537.028,579.013 504.5,575C 491.452,574.1 478.452,574.433 465.5,576C 456.746,578.589 451.746,584.422 450.5,593.5 Z"/></g>
<g><path style="opacity:0.967" fill="#5cb9c2" d="M 779.5,560.5 C 781.43,564.373 782.097,568.706 781.5,573.5C 780.291,569.382 779.624,565.049 779.5,560.5 Z"/></g>
<g><path style="opacity:1" fill="#a7dfdb" d="M 2522.5,562.5 C 2521.08,563.922 2520.08,565.589 2519.5,567.5C 2515.95,568.239 2512.62,569.573 2509.5,571.5C 2509.41,570.504 2509.75,569.671 2510.5,569C 2514.91,567.483 2518.91,565.316 2522.5,562.5 Z"/></g>
<g><path style="opacity:0.985" fill="#21a1ab" d="M 1168.5,570.5 C 1172.39,569.945 1175.39,571.279 1177.5,574.5C 1168.96,597.951 1162.79,621.951 1159,646.5C 1161.9,643.358 1163.74,639.691 1164.5,635.5C 1167.67,635.401 1170.67,636.068 1173.5,637.5C 1171.84,644.328 1168.5,650.161 1163.5,655C 1156.14,659.197 1150.3,657.697 1146,650.5C 1145.22,643.578 1145.72,636.745 1147.5,630C 1150.87,614.17 1154.87,598.503 1159.5,583C 1159.17,582.5 1158.83,582 1158.5,581.5C 1156.93,582.309 1155.26,582.643 1153.5,582.5C 1153.17,579.518 1153.17,576.685 1153.5,574C 1158.71,573.149 1163.71,571.982 1168.5,570.5 Z"/></g>
<g><path style="opacity:0.988" fill="#1fa0ab" d="M 1236.5,570.5 C 1240.54,569.66 1243.54,570.993 1245.5,574.5C 1241.72,583.983 1238.89,593.649 1237,603.5C 1245.02,594.804 1253.69,593.804 1263,600.5C 1266.15,606.297 1265.81,611.963 1262,617.5C 1258.12,622.513 1253.29,626.18 1247.5,628.5C 1249.62,634.317 1250.95,640.317 1251.5,646.5C 1254.15,643.375 1256.15,639.875 1257.5,636C 1260.19,635.57 1262.86,635.737 1265.5,636.5C 1264.16,644.697 1260.16,651.197 1253.5,656C 1247.14,658.546 1241.97,657.046 1238,651.5C 1236.88,645.897 1236.21,640.231 1236,634.5C 1235.05,632.545 1233.71,630.878 1232,629.5C 1229.2,637.705 1226.87,646.038 1225,654.5C 1220.01,656.213 1214.85,656.879 1209.5,656.5C 1211.11,648.551 1213.11,640.718 1215.5,633C 1213.19,633.155 1210.86,633.155 1208.5,633C 1211.76,631.881 1214.43,630.048 1216.5,627.5C 1220.17,612.833 1223.83,598.167 1227.5,583.5C 1227.17,582.833 1226.83,582.167 1226.5,581.5C 1224.93,582.309 1223.26,582.643 1221.5,582.5C 1221.5,579.5 1221.5,576.5 1221.5,573.5C 1226.77,573.237 1231.77,572.237 1236.5,570.5 Z M 1246.5,606.5 C 1252.92,606.766 1254.08,609.433 1250,614.5C 1246.07,618.806 1241.23,620.973 1235.5,621C 1238.23,615.438 1241.9,610.605 1246.5,606.5 Z"/></g>
<g><path style="opacity:0.986" fill="#20a1ab" d="M 1028.5,599.5 C 1025.83,599.5 1023.17,599.5 1020.5,599.5C 1020.5,598.167 1020.5,596.833 1020.5,595.5C 1020.5,591.5 1020.5,587.5 1020.5,583.5C 1016.5,583.5 1012.5,583.5 1008.5,583.5C 1004.87,604.502 1000.53,625.335 995.5,646C 999.167,646.333 1002.83,646.667 1006.5,647C 1007.01,649.718 1007.01,652.551 1006.5,655.5C 993.5,655.5 980.5,655.5 967.5,655.5C 967.154,652.398 967.821,649.565 969.5,647C 973.486,646.501 977.486,646.334 981.5,646.5C 985.133,625.498 989.467,604.665 994.5,584C 990.459,583.173 986.459,583.34 982.5,584.5C 980.765,589.538 978.932,594.538 977,599.5C 974.281,600.444 971.448,600.777 968.5,600.5C 970.038,590.81 971.705,581.143 973.5,571.5C 975.115,572.154 976.782,572.654 978.5,573C 995.167,573.667 1011.83,573.667 1028.5,573C 1031.19,571.81 1033.86,571.644 1036.5,572.5C 1032.75,581.176 1030.08,590.176 1028.5,599.5 Z"/></g>
<g><path style="opacity:0.243" fill="#6ac4cb" d="M 1622.5,577.5 C 1622.5,576.5 1622.5,575.5 1622.5,574.5C 1613.08,574.195 1603.75,574.528 1594.5,575.5C 1603.78,573.527 1613.44,572.86 1623.5,573.5C 1623.77,575.099 1623.43,576.432 1622.5,577.5 Z"/></g>
<g><path style="opacity:0.243" fill="#68c3ca" d="M 1641.5,574.5 C 1649.32,573.508 1657.32,573.174 1665.5,573.5C 1665.78,575.415 1665.45,577.081 1664.5,578.5C 1664.5,577.167 1664.5,575.833 1664.5,574.5C 1656.83,574.5 1649.17,574.5 1641.5,574.5 Z"/></g>
<g><path style="opacity:0.989" fill="#1ca0aa" d="M 1622.5,577.5 C 1622.5,578.167 1622.5,578.833 1622.5,579.5C 1619.97,580.935 1617.31,581.935 1614.5,582.5C 1610.83,600.501 1607.17,618.501 1603.5,636.5C 1604.72,643.117 1608.72,646.451 1615.5,646.5C 1623.35,646.158 1629.52,642.825 1634,636.5C 1638.62,618.588 1642.78,600.588 1646.5,582.5C 1644.16,582.06 1642.16,581.06 1640.5,579.5C 1640.22,577.585 1640.55,575.919 1641.5,574.5C 1649.17,574.5 1656.83,574.5 1664.5,574.5C 1664.5,575.833 1664.5,577.167 1664.5,578.5C 1664.5,579.833 1664.5,581.167 1664.5,582.5C 1661.83,582.5 1659.17,582.5 1656.5,582.5C 1653.42,602.5 1648.92,622.167 1643,641.5C 1630.92,657.253 1615.75,661.086 1597.5,653C 1590.03,646.931 1587.53,639.098 1590,629.5C 1593.11,614.468 1596.27,599.468 1599.5,584.5C 1600.4,583.791 1600.74,582.791 1600.5,581.5C 1598.5,581.5 1596.5,581.5 1594.5,581.5C 1594.5,580.167 1594.5,578.833 1594.5,577.5C 1594.5,576.833 1594.5,576.167 1594.5,575.5C 1603.75,574.528 1613.08,574.195 1622.5,574.5C 1622.5,575.5 1622.5,576.5 1622.5,577.5 Z"/></g>
<g><path style="opacity:0.978" fill="#22a2ac" d="M 1811.5,574.5 C 1820.92,575.067 1824.08,579.734 1821,588.5C 1816.33,593.833 1811.67,593.833 1807,588.5C 1804.21,582.414 1805.71,577.747 1811.5,574.5 Z"/></g>
<g><path style="opacity:0.975" fill="#2aa3ad" d="M 2215.5,574.5 C 2224.79,574.481 2228.29,578.814 2226,587.5C 2221.29,593.532 2216.29,593.865 2211,588.5C 2208.21,582.414 2209.71,577.747 2215.5,574.5 Z"/></g>
<g><path style="opacity:1" fill="#219996" d="M 2567.5,554.5 C 2566.95,557.807 2566.62,561.14 2566.5,564.5C 2565.79,566.378 2564.63,568.045 2563,569.5C 2562.45,572.379 2561.62,575.046 2560.5,577.5C 2560.78,574.653 2560.78,571.987 2560.5,569.5C 2559.2,573.44 2557.36,577.107 2555,580.5C 2553.41,573.943 2553.08,567.276 2554,560.5C 2554.33,560.833 2554.67,561.167 2555,561.5C 2555.82,558.883 2556.32,556.216 2556.5,553.5C 2558.17,553.5 2559.83,553.5 2561.5,553.5C 2561.73,556.249 2561.39,558.916 2560.5,561.5C 2561.69,562.429 2563.02,562.762 2564.5,562.5C 2564.49,559.374 2565.49,556.707 2567.5,554.5 Z"/></g>
<g><path style="opacity:1" fill="#97d9d7" d="M 2508.5,571.5 C 2508.17,572.167 2507.83,572.833 2507.5,573.5C 2505.62,574.341 2503.62,574.675 2501.5,574.5C 2501.5,575.5 2501.5,576.5 2501.5,577.5C 2498.4,577.092 2496.07,578.259 2494.5,581C 2491.51,581.502 2488.85,582.669 2486.5,584.5C 2484.88,585.038 2483.22,585.371 2481.5,585.5C 2489.6,579.053 2498.6,574.387 2508.5,571.5 Z"/></g>
<g><path style="opacity:0.216" fill="#6dc5cc" d="M 1594.5,577.5 C 1594.5,578.833 1594.5,580.167 1594.5,581.5C 1596.5,581.5 1598.5,581.5 1600.5,581.5C 1600.74,582.791 1600.4,583.791 1599.5,584.5C 1598.08,582.692 1596.08,582.025 1593.5,582.5C 1593.22,580.585 1593.55,578.919 1594.5,577.5 Z"/></g>
<g><path style="opacity:0.216" fill="#73c8ce" d="M 1622.5,579.5 C 1622.5,580.5 1622.5,581.5 1622.5,582.5C 1619.83,582.5 1617.17,582.5 1614.5,582.5C 1617.31,581.935 1619.97,580.935 1622.5,579.5 Z"/></g>
<g><path style="opacity:0.216" fill="#7eccd2" d="M 1640.5,579.5 C 1642.16,581.06 1644.16,582.06 1646.5,582.5C 1644.17,582.5 1641.83,582.5 1639.5,582.5C 1639.26,581.209 1639.6,580.209 1640.5,579.5 Z"/></g>
<g><path style="opacity:1" fill="#149d99" d="M 2545.5,557.5 C 2545.02,564.238 2544.02,570.905 2542.5,577.5C 2539,578.06 2537.34,580.06 2537.5,583.5C 2539.83,583.5 2542.17,583.5 2544.5,583.5C 2543.78,589.138 2543.45,594.804 2543.5,600.5C 2544.82,600.67 2545.99,600.337 2547,599.5C 2548.3,596.429 2549.46,593.429 2550.5,590.5C 2550.02,597.452 2547.85,603.785 2544,609.5C 2543.34,616.627 2542.17,623.627 2540.5,630.5C 2539.28,631.028 2538.11,631.695 2537,632.5C 2536.67,635.833 2536.33,639.167 2536,642.5C 2533.52,645.203 2531.69,648.37 2530.5,652C 2531.72,653.72 2532.72,655.553 2533.5,657.5C 2531.52,660.81 2529.18,663.81 2526.5,666.5C 2526.77,660.594 2524.1,658.094 2518.5,659C 2517.75,659.671 2517.41,660.504 2517.5,661.5C 2515.39,659.718 2513.06,658.385 2510.5,657.5C 2510.5,656.833 2510.17,656.5 2509.5,656.5C 2512.71,652.467 2511.71,650.467 2506.5,650.5C 2509.16,634.88 2511.49,619.213 2513.5,603.5C 2509.38,603.47 2505.38,602.803 2501.5,601.5C 2499.37,600.686 2497.04,600.186 2494.5,600C 2498.24,599.185 2501.91,598.518 2505.5,598C 2508.73,596.894 2511.39,595.061 2513.5,592.5C 2511.85,591.012 2509.85,590.012 2507.5,589.5C 2510.44,584.896 2510.11,580.729 2506.5,577C 2506.99,575.862 2507.32,574.695 2507.5,573.5C 2507.83,572.833 2508.17,572.167 2508.5,571.5C 2508.83,571.5 2509.17,571.5 2509.5,571.5C 2512.62,569.573 2515.95,568.239 2519.5,567.5C 2520.96,566.542 2522.29,565.376 2523.5,564C 2528.78,562.76 2533.78,560.76 2538.5,558C 2540.81,557.503 2543.14,557.337 2545.5,557.5 Z"/></g>
<g><path style="opacity:0.987" fill="#22a1ab" d="M 2274.5,608.5 C 2271.83,607.833 2269.17,607.167 2266.5,606.5C 2266.67,604.139 2267.01,601.806 2267.5,599.5C 2271.91,599.969 2275.91,598.969 2279.5,596.5C 2282.76,592.304 2285.76,587.97 2288.5,583.5C 2290.54,585.177 2292.54,586.844 2294.5,588.5C 2292.88,592.014 2291.88,595.681 2291.5,599.5C 2294.85,599.335 2298.18,599.502 2301.5,600C 2300.65,602.718 2299.65,605.384 2298.5,608C 2294.67,607.962 2291.17,608.795 2288,610.5C 2284.61,622.242 2281.77,634.076 2279.5,646C 2281,646.507 2282.16,646.007 2283,644.5C 2284.44,641.95 2285.61,639.284 2286.5,636.5C 2289.6,635.382 2292.6,635.716 2295.5,637.5C 2293.35,644.986 2289.35,651.153 2283.5,656C 2273.41,659.124 2267.75,655.458 2266.5,645C 2268.47,632.643 2271.13,620.476 2274.5,608.5 Z"/></g>
<g><path style="opacity:1" fill="#abe5e2" d="M 2481.5,585.5 C 2481.05,586.458 2480.38,587.292 2479.5,588C 2477.41,588.315 2475.41,588.815 2473.5,589.5C 2475.7,587.583 2478.36,586.249 2481.5,585.5 Z"/></g>
<g><path style="opacity:1" fill="#1e9798" d="M 2547.5,552.5 C 2547.33,554.912 2548,557.079 2549.5,559C 2546.81,567.27 2545.98,575.77 2547,584.5C 2548.01,585.337 2549.18,585.67 2550.5,585.5C 2550.5,587.167 2550.5,588.833 2550.5,590.5C 2549.46,593.429 2548.3,596.429 2547,599.5C 2545.99,600.337 2544.82,600.67 2543.5,600.5C 2543.45,594.804 2543.78,589.138 2544.5,583.5C 2542.17,583.5 2539.83,583.5 2537.5,583.5C 2537.34,580.06 2539,578.06 2542.5,577.5C 2544.02,570.905 2545.02,564.238 2545.5,557.5C 2544.16,555.166 2544.83,553.499 2547.5,552.5 Z"/></g>
<g><path style="opacity:0.985" fill="#21a1ab" d="M 1088.5,595.5 C 1103.65,595.474 1109.48,602.807 1106,617.5C 1102.78,622.714 1098.28,626.548 1092.5,629C 1086.33,631.001 1079.99,631.834 1073.5,631.5C 1073.33,634.85 1073.5,638.183 1074,641.5C 1075.41,647.061 1078.91,648.895 1084.5,647C 1090.1,644.614 1093.44,640.447 1094.5,634.5C 1097.75,634.562 1100.75,635.396 1103.5,637C 1098.22,652.631 1087.56,658.965 1071.5,656C 1063.13,651.607 1058.8,644.607 1058.5,635C 1059.24,620.517 1065.24,608.85 1076.5,600C 1080.43,597.972 1084.43,596.472 1088.5,595.5 Z M 1087.5,605.5 C 1089.47,605.261 1091.3,605.594 1093,606.5C 1092.93,617.891 1087.1,623.057 1075.5,622C 1077.44,614.922 1081.44,609.422 1087.5,605.5 Z"/></g>
<g><path style="opacity:0.986" fill="#20a1ab" d="M 1333.5,595.5 C 1344.15,595.326 1350.99,600.326 1354,610.5C 1356.71,627.025 1351.88,640.859 1339.5,652C 1329.14,659.257 1318.8,659.257 1308.5,652C 1302.57,643.616 1301.07,634.449 1304,624.5C 1307.87,608.457 1317.71,598.791 1333.5,595.5 Z M 1330.5,605.5 C 1335.35,604.277 1338.52,605.944 1340,610.5C 1341.57,622.537 1338.91,633.537 1332,643.5C 1322.96,650.497 1317.8,648.33 1316.5,637C 1317.15,629.572 1318.98,622.405 1322,615.5C 1323.98,611.362 1326.81,608.029 1330.5,605.5 Z"/></g>
<g><path style="opacity:0.986" fill="#1fa0ab" d="M 1434.5,595.5 C 1441.11,595.94 1445.61,599.274 1448,605.5C 1454.15,597.661 1461.98,594.828 1471.5,597C 1477.56,603.118 1479.06,610.284 1476,618.5C 1472.55,627.063 1469.39,635.73 1466.5,644.5C 1466.48,646.373 1466.98,646.706 1468,645.5C 1470.03,642.779 1471.53,639.779 1472.5,636.5C 1475.13,635.551 1477.79,635.551 1480.5,636.5C 1479.53,647.454 1473.87,654.454 1463.5,657.5C 1456.62,656.781 1452.95,652.948 1452.5,646C 1455.23,636.365 1458.4,626.865 1462,617.5C 1463.11,613.914 1463.61,610.247 1463.5,606.5C 1458.4,607.757 1454.56,610.757 1452,615.5C 1445.35,628.105 1440.85,641.439 1438.5,655.5C 1433.19,656.362 1427.85,656.529 1422.5,656C 1426.56,641.927 1430.39,627.761 1434,613.5C 1434.67,611.5 1434.67,609.5 1434,607.5C 1433.44,606.978 1432.77,606.645 1432,606.5C 1429.38,608.112 1427.05,610.112 1425,612.5C 1416.96,625.78 1411.8,640.114 1409.5,655.5C 1404.19,656.362 1398.85,656.529 1393.5,656C 1397.5,640.333 1401.5,624.667 1405.5,609C 1403.19,608.503 1400.86,608.337 1398.5,608.5C 1398.5,605.833 1398.5,603.167 1398.5,600.5C 1404.94,599.679 1411.27,598.346 1417.5,596.5C 1419.89,597.602 1421.72,599.269 1423,601.5C 1426.57,598.798 1430.41,596.798 1434.5,595.5 Z"/></g>
<g><path style="opacity:0.986" fill="#1fa0ab" d="M 1734.5,595.5 C 1741.11,595.386 1745.61,598.386 1748,604.5C 1748.75,609.572 1748.42,614.572 1747,619.5C 1743.63,627.934 1740.47,636.434 1737.5,645C 1738.1,646.563 1738.94,646.396 1740,644.5C 1741.74,641.691 1742.91,638.691 1743.5,635.5C 1746.67,635.401 1749.67,636.068 1752.5,637.5C 1750.93,643.817 1747.93,649.317 1743.5,654C 1729.53,660.422 1723.36,655.922 1725,640.5C 1728,632.167 1731,623.833 1734,615.5C 1734.5,612.518 1734.66,609.518 1734.5,606.5C 1728.85,607.296 1724.69,610.296 1722,615.5C 1715.2,628.064 1710.7,641.398 1708.5,655.5C 1703.54,656.254 1698.54,656.587 1693.5,656.5C 1696.85,640.43 1700.52,624.43 1704.5,608.5C 1698.5,609.196 1696.16,606.529 1697.5,600.5C 1704.12,599.61 1710.62,598.277 1717,596.5C 1718.97,597.64 1720.81,598.973 1722.5,600.5C 1726.38,598.214 1730.38,596.547 1734.5,595.5 Z"/></g>
<g><path style="opacity:0.982" fill="#22a1ab" d="M 1873.5,595.5 C 1884.09,597 1887.93,603 1885,613.5C 1883,621.5 1881,629.5 1879,637.5C 1876.42,645.578 1878.92,648.078 1886.5,645C 1901.19,631.829 1903.69,616.995 1894,600.5C 1904.81,592.822 1910.64,595.822 1911.5,609.5C 1910.5,626.702 1903.83,641.202 1891.5,653C 1882.73,659.376 1874.56,658.876 1867,651.5C 1865.45,648.698 1864.62,645.698 1864.5,642.5C 1866.21,631.979 1868.71,621.646 1872,611.5C 1872.67,609.833 1872.67,608.167 1872,606.5C 1869.05,610.062 1866.89,614.062 1865.5,618.5C 1862.84,617.668 1860.17,616.834 1857.5,616C 1859.54,609.258 1862.87,603.258 1867.5,598C 1869.61,597.155 1871.61,596.322 1873.5,595.5 Z"/></g>
<g><path style="opacity:0.983" fill="#1ea0ab" d="M 1973.5,630.5 C 1969.83,630.5 1966.17,630.5 1962.5,630.5C 1962.19,634.042 1962.52,637.375 1963.5,640.5C 1963.46,644.963 1965.63,647.296 1970,647.5C 1977.26,646.245 1982.09,642.078 1984.5,635C 1986.85,634.83 1989.18,635.163 1991.5,636C 1992.02,636.561 1992.36,637.228 1992.5,638C 1986.45,654.358 1975.12,660.025 1958.5,655C 1951.59,650.005 1948.25,643.171 1948.5,634.5C 1948.84,616.973 1956.84,604.473 1972.5,597C 1992.37,593.526 1999.53,601.359 1994,620.5C 1988.68,626.91 1981.85,630.243 1973.5,630.5 Z M 1976.5,605.5 C 1982,604.831 1984.17,607.165 1983,612.5C 1979.38,619.891 1973.55,622.891 1965.5,621.5C 1967.67,615.022 1971.33,609.689 1976.5,605.5 Z"/></g>
<g><path style="opacity:0.987" fill="#1da0aa" d="M 2069.5,595.5 C 2075.18,595.585 2079.01,598.252 2081,603.5C 2082.49,609.962 2081.32,615.795 2077.5,621C 2071.9,623.567 2067.23,622.4 2063.5,617.5C 2065.98,614.565 2067.14,611.232 2067,607.5C 2061.48,613.204 2057.48,619.871 2055,627.5C 2051.56,636.602 2049.06,645.936 2047.5,655.5C 2042.19,656.362 2036.85,656.529 2031.5,656C 2035.5,640.333 2039.5,624.667 2043.5,609C 2041.19,608.503 2038.86,608.337 2036.5,608.5C 2036.5,605.833 2036.5,603.167 2036.5,600.5C 2042.94,599.679 2049.27,598.346 2055.5,596.5C 2057.42,597.711 2059.26,599.044 2061,600.5C 2063.68,598.415 2066.52,596.748 2069.5,595.5 Z"/></g>
<g><path style="opacity:0.983" fill="#21a1ab" d="M 2138.5,595.5 C 2143.99,595.916 2149.33,597.082 2154.5,599C 2156.18,599.347 2157.18,600.347 2157.5,602C 2155.28,608.393 2153.44,614.893 2152,621.5C 2149.14,620.827 2146.31,619.993 2143.5,619C 2144.26,616.056 2144.92,613.056 2145.5,610C 2145.22,608.108 2144.22,606.775 2142.5,606C 2134.77,604.077 2131.27,606.91 2132,614.5C 2133.83,616.333 2135.67,618.167 2137.5,620C 2143.94,622.777 2148.78,627.277 2152,633.5C 2153.79,644.74 2149.29,652.24 2138.5,656C 2128.09,658.952 2118.76,657.118 2110.5,650.5C 2112.8,645.024 2114.46,639.357 2115.5,633.5C 2117.83,632.276 2120.16,632.276 2122.5,633.5C 2123.65,636.478 2123.65,639.478 2122.5,642.5C 2123.22,646.631 2125.72,648.631 2130,648.5C 2138.69,646.632 2140.52,642.132 2135.5,635C 2127.97,631.475 2122.47,625.975 2119,618.5C 2117.58,610.757 2120.08,604.59 2126.5,600C 2130.3,597.584 2134.3,596.084 2138.5,595.5 Z"/></g>
<g><path style="opacity:0.983" fill="#21a1ab" d="M 2346.5,595.5 C 2354.92,595.424 2359.26,599.591 2359.5,608C 2356.98,619.399 2354.32,630.733 2351.5,642C 2352.38,643.356 2352.71,644.856 2352.5,646.5C 2355.79,646.741 2358.79,645.908 2361.5,644C 2370.25,635.678 2374.41,625.511 2374,613.5C 2373.48,609.265 2371.48,605.932 2368,603.5C 2367.33,602.5 2367.33,601.5 2368,600.5C 2374.56,593.153 2379.9,593.819 2384,602.5C 2386.84,624.637 2382.17,644.971 2370,663.5C 2363.99,670.848 2356.83,676.681 2348.5,681C 2340.97,684.631 2333.63,684.298 2326.5,680C 2321.8,673.869 2321.3,667.369 2325,660.5C 2330.2,656.416 2335.2,656.749 2340,661.5C 2339.6,663.631 2338.6,665.631 2337,667.5C 2336.5,669.473 2336.34,671.473 2336.5,673.5C 2348.12,671.572 2357.12,665.572 2363.5,655.5C 2363.17,655.167 2362.83,654.833 2362.5,654.5C 2344.43,660.934 2336.6,654.601 2339,635.5C 2341.5,626.156 2344,616.823 2346.5,607.5C 2345.73,606.289 2344.89,606.289 2344,607.5C 2342.33,611.201 2340.66,614.868 2339,618.5C 2336.62,617.446 2334.12,616.779 2331.5,616.5C 2332.86,606.736 2337.86,599.736 2346.5,595.5 Z"/></g>
<g><path style="opacity:0.987" fill="#20a1ab" d="M 1812.5,596.5 C 1814.91,597.399 1816.91,598.899 1818.5,601C 1813,615.817 1809.17,630.983 1807,646.5C 1810.06,643.554 1812.22,640.054 1813.5,636C 1816.16,635.825 1818.82,635.992 1821.5,636.5C 1820.13,643.735 1816.8,649.901 1811.5,655C 1805.26,658.816 1799.76,657.983 1795,652.5C 1793.54,648.259 1793.21,643.926 1794,639.5C 1796.01,629.119 1798.18,618.786 1800.5,608.5C 1798.5,608.5 1796.5,608.5 1794.5,608.5C 1794.19,605.753 1794.52,603.086 1795.5,600.5C 1801.4,599.658 1807.06,598.325 1812.5,596.5 Z"/></g>
<g><path style="opacity:0.984" fill="#21a1ab" d="M 2216.5,596.5 C 2219.34,597.241 2221.34,598.908 2222.5,601.5C 2217.64,615.762 2213.64,630.262 2210.5,645C 2211.01,646.826 2211.84,646.993 2213,645.5C 2214.64,642.378 2216.14,639.212 2217.5,636C 2220.19,635.57 2222.86,635.737 2225.5,636.5C 2224.35,647.502 2218.52,654.502 2208,657.5C 2200.72,656.296 2197.22,651.962 2197.5,644.5C 2199.22,632.421 2201.88,620.588 2205.5,609C 2203.19,608.503 2200.86,608.337 2198.5,608.5C 2198.5,605.833 2198.5,603.167 2198.5,600.5C 2204.75,599.785 2210.75,598.452 2216.5,596.5 Z"/></g>
<g><path style="opacity:0.055" fill="#abe0df" d="M 2473.5,589.5 C 2471.44,591.594 2469.11,593.428 2466.5,595C 2462.03,596.545 2457.69,598.379 2453.5,600.5C 2454.35,598.907 2455.68,597.74 2457.5,597C 2463.18,595.131 2468.51,592.631 2473.5,589.5 Z"/></g>
<g><path style="opacity:0.071" fill="#a2d6d4" d="M 2566.5,564.5 C 2559.8,586.552 2553.13,608.552 2546.5,630.5C 2546.5,629.167 2546.5,627.833 2546.5,626.5C 2546.5,625.5 2546.5,624.5 2546.5,623.5C 2550.44,612.325 2554.27,600.992 2558,589.5C 2559.15,585.553 2559.99,581.553 2560.5,577.5C 2561.62,575.046 2562.45,572.379 2563,569.5C 2564.63,568.045 2565.79,566.378 2566.5,564.5 Z"/></g>
<g><path style="opacity:0.114" fill="#93d5d9" d="M 1020.5,595.5 C 1020.5,596.833 1020.5,598.167 1020.5,599.5C 1023.17,599.5 1025.83,599.5 1028.5,599.5C 1025.71,600.477 1022.71,600.81 1019.5,600.5C 1019.22,598.585 1019.55,596.919 1020.5,595.5 Z"/></g>
<g><path style="opacity:1" fill="#18a6a1" d="M 2507.5,573.5 C 2507.32,574.695 2506.99,575.862 2506.5,577C 2510.11,580.729 2510.44,584.896 2507.5,589.5C 2509.85,590.012 2511.85,591.012 2513.5,592.5C 2511.39,595.061 2508.73,596.894 2505.5,598C 2501.91,598.518 2498.24,599.185 2494.5,600C 2497.04,600.186 2499.37,600.686 2501.5,601.5C 2500.05,615.896 2497.72,630.896 2494.5,646.5C 2496.59,649.461 2498.25,652.628 2499.5,656C 2502.88,655.381 2506.21,655.547 2509.5,656.5C 2510.17,656.5 2510.5,656.833 2510.5,657.5C 2507.92,658.048 2506.92,659.715 2507.5,662.5C 2502.59,664.406 2498.93,667.739 2496.5,672.5C 2494.19,675.473 2491.53,678.14 2488.5,680.5C 2488.68,679.305 2489.01,678.138 2489.5,677C 2488.83,676 2488.17,675 2487.5,674C 2489.71,671.249 2491.21,668.082 2492,664.5C 2492.81,662.421 2492.64,660.421 2491.5,658.5C 2486.23,662.618 2482.73,667.951 2481,674.5C 2479.99,675.337 2478.82,675.67 2477.5,675.5C 2477.79,668.773 2478.62,662.107 2480,655.5C 2482.2,654.004 2484.7,653.004 2487.5,652.5C 2489.18,648.541 2487.85,646.541 2483.5,646.5C 2484.24,643.05 2482.91,641.384 2479.5,641.5C 2479.5,643.167 2479.5,644.833 2479.5,646.5C 2477.5,646.5 2475.5,646.5 2473.5,646.5C 2471.17,660.487 2468.84,674.487 2466.5,688.5C 2466.29,689.994 2465.62,691.161 2464.5,692C 2464.93,694.629 2465.93,696.962 2467.5,699C 2466.75,699.671 2466.41,700.504 2466.5,701.5C 2463.32,701.33 2461.32,699.663 2460.5,696.5C 2455.38,694.449 2453.55,696.115 2455,701.5C 2457.41,702.411 2458.91,704.078 2459.5,706.5C 2459.5,707.167 2459.5,707.833 2459.5,708.5C 2458.05,707.378 2457.05,705.878 2456.5,704C 2455.23,703.691 2454.07,703.191 2453,702.5C 2452.82,699.774 2452.32,697.107 2451.5,694.5C 2450.6,695.506 2449.94,695.506 2449.5,694.5C 2452.19,692.791 2454.86,691.125 2457.5,689.5C 2460.1,672.25 2462.77,655.25 2465.5,638.5C 2464.07,638.421 2462.74,638.754 2461.5,639.5C 2460.55,637.955 2460.21,636.288 2460.5,634.5C 2460.95,631.872 2461.95,629.539 2463.5,627.5C 2465.51,626.384 2466.51,624.551 2466.5,622C 2464.71,619.038 2462.37,616.538 2459.5,614.5C 2460.92,613.549 2462.59,613.216 2464.5,613.5C 2465.15,607.818 2465.98,602.151 2467,596.5C 2472.46,591.95 2478.63,588.617 2485.5,586.5C 2485.86,585.817 2486.2,585.15 2486.5,584.5C 2488.85,582.669 2491.51,581.502 2494.5,581C 2496.07,578.259 2498.4,577.092 2501.5,577.5C 2501.5,576.5 2501.5,575.5 2501.5,574.5C 2503.62,574.675 2505.62,574.341 2507.5,573.5 Z"/></g>
<g><path style="opacity:1" fill="#1ca09d" d="M 2501.5,601.5 C 2505.38,602.803 2509.38,603.47 2513.5,603.5C 2511.49,619.213 2509.16,634.88 2506.5,650.5C 2511.71,650.467 2512.71,652.467 2509.5,656.5C 2506.21,655.547 2502.88,655.381 2499.5,656C 2498.25,652.628 2496.59,649.461 2494.5,646.5C 2497.72,630.896 2500.05,615.896 2501.5,601.5 Z"/></g>
<g><path style="opacity:1" fill="#aedfdb" d="M 2453.5,600.5 C 2452.16,602.12 2450.33,603.12 2448,603.5C 2447.5,604.5 2447,605.5 2446.5,606.5C 2446.96,607.298 2447.62,607.631 2448.5,607.5C 2448.5,607.833 2448.5,608.167 2448.5,608.5C 2445.48,608.636 2443.98,607.302 2444,604.5C 2446.78,602.244 2449.94,600.911 2453.5,600.5 Z"/></g>
<g><path style="opacity:0.149" fill="#88d0d5" d="M 2266.5,606.5 C 2269.17,607.167 2271.83,607.833 2274.5,608.5C 2271.43,608.817 2268.43,608.484 2265.5,607.5C 2265.62,606.893 2265.96,606.56 2266.5,606.5 Z"/></g>
<g><path style="opacity:1" fill="#21afa9" d="M 2486.5,584.5 C 2486.2,585.15 2485.86,585.817 2485.5,586.5C 2478.63,588.617 2472.46,591.95 2467,596.5C 2465.98,602.151 2465.15,607.818 2464.5,613.5C 2462.59,613.216 2460.92,613.549 2459.5,614.5C 2458.17,614.5 2456.83,614.5 2455.5,614.5C 2455.65,613.448 2455.48,612.448 2455,611.5C 2452.4,610.704 2450.23,609.371 2448.5,607.5C 2447.62,607.631 2446.96,607.298 2446.5,606.5C 2447,605.5 2447.5,604.5 2448,603.5C 2450.33,603.12 2452.16,602.12 2453.5,600.5C 2457.69,598.379 2462.03,596.545 2466.5,595C 2469.11,593.428 2471.44,591.594 2473.5,589.5C 2475.41,588.815 2477.41,588.315 2479.5,588C 2480.38,587.292 2481.05,586.458 2481.5,585.5C 2483.22,585.371 2484.88,585.038 2486.5,584.5 Z"/></g>
<g><path style="opacity:1" fill="#92d6d4" d="M 2448.5,607.5 C 2450.23,609.371 2452.4,610.704 2455,611.5C 2455.48,612.448 2455.65,613.448 2455.5,614.5C 2456.83,614.5 2458.17,614.5 2459.5,614.5C 2462.37,616.538 2464.71,619.038 2466.5,622C 2466.51,624.551 2465.51,626.384 2463.5,627.5C 2464.58,625.144 2464.58,622.811 2463.5,620.5C 2459.05,617.132 2454.39,614.132 2449.5,611.5C 2448.61,610.675 2448.28,609.675 2448.5,608.5C 2448.5,608.167 2448.5,607.833 2448.5,607.5 Z"/></g>
<g><path style="opacity:1" fill="#59bcb2" d="M 2546.5,626.5 C 2546.5,627.833 2546.5,629.167 2546.5,630.5C 2546.5,630.833 2546.5,631.167 2546.5,631.5C 2545.54,631.953 2544.71,632.619 2544,633.5C 2543.68,636.666 2542.51,639.333 2540.5,641.5C 2540.8,638.478 2541.3,635.478 2542,632.5C 2544.25,630.97 2545.75,628.97 2546.5,626.5 Z"/></g>
<g><path style="opacity:1" fill="#14a195" d="M 2546.5,623.5 C 2546.5,624.5 2546.5,625.5 2546.5,626.5C 2545.75,628.97 2544.25,630.97 2542,632.5C 2541.3,635.478 2540.8,638.478 2540.5,641.5C 2540.25,645.249 2539.58,648.915 2538.5,652.5C 2536.72,653.574 2535.55,655.24 2535,657.5C 2534.08,663.589 2532.75,669.589 2531,675.5C 2529.87,673.859 2528.37,672.859 2526.5,672.5C 2525.51,672.672 2524.84,672.338 2524.5,671.5C 2521.81,668.467 2519.48,665.133 2517.5,661.5C 2517.41,660.504 2517.75,659.671 2518.5,659C 2524.1,658.094 2526.77,660.594 2526.5,666.5C 2529.18,663.81 2531.52,660.81 2533.5,657.5C 2532.72,655.553 2531.72,653.72 2530.5,652C 2531.69,648.37 2533.52,645.203 2536,642.5C 2536.33,639.167 2536.67,635.833 2537,632.5C 2538.11,631.695 2539.28,631.028 2540.5,630.5C 2542.26,627.98 2544.26,625.647 2546.5,623.5 Z"/></g>
<g><path style="opacity:0.016" fill="#99d6db" d="M 1973.5,630.5 C 1970.38,631.479 1967.04,631.813 1963.5,631.5C 1963.5,634.5 1963.5,637.5 1963.5,640.5C 1962.52,637.375 1962.19,634.042 1962.5,630.5C 1966.17,630.5 1969.83,630.5 1973.5,630.5 Z"/></g>
<g><path style="opacity:1" fill="#97d5d4" d="M 2463.5,627.5 C 2461.95,629.539 2460.95,631.872 2460.5,634.5C 2459.32,634.281 2458.32,634.614 2457.5,635.5C 2456.87,637.786 2455.53,639.452 2453.5,640.5C 2453.17,640.5 2452.83,640.5 2452.5,640.5C 2452.54,639.417 2452.87,638.417 2453.5,637.5C 2455.5,635.5 2457.5,633.5 2459.5,631.5C 2460.25,630.264 2460.58,628.93 2460.5,627.5C 2461.5,627.5 2462.5,627.5 2463.5,627.5 Z"/></g>
<g><path style="opacity:0.008" fill="#b1dddb" d="M 2546.5,631.5 C 2543.3,639.589 2540.8,647.922 2539,656.5C 2538.15,657.571 2537.31,658.571 2536.5,659.5C 2537.17,657.167 2537.83,654.833 2538.5,652.5C 2539.58,648.915 2540.25,645.249 2540.5,641.5C 2542.51,639.333 2543.68,636.666 2544,633.5C 2544.71,632.619 2545.54,631.953 2546.5,631.5 Z"/></g>
<g><path style="opacity:1" fill="#1daba7" d="M 2460.5,634.5 C 2460.21,636.288 2460.55,637.955 2461.5,639.5C 2462.74,638.754 2464.07,638.421 2465.5,638.5C 2462.77,655.25 2460.1,672.25 2457.5,689.5C 2454.86,691.125 2452.19,692.791 2449.5,694.5C 2449.94,695.506 2450.6,695.506 2451.5,694.5C 2452.32,697.107 2452.82,699.774 2453,702.5C 2454.07,703.191 2455.23,703.691 2456.5,704C 2457.05,705.878 2458.05,707.378 2459.5,708.5C 2452.55,713.774 2445.55,719.107 2438.5,724.5C 2438.5,723.167 2438.5,721.833 2438.5,720.5C 2432.59,720.794 2428.26,723.627 2425.5,729C 2423.87,729.494 2422.2,729.66 2420.5,729.5C 2420.5,726.833 2420.5,724.167 2420.5,721.5C 2425.56,721.772 2428.56,719.439 2429.5,714.5C 2437.34,713.783 2437.34,712.283 2429.5,710C 2427.87,709.506 2426.2,709.34 2424.5,709.5C 2424.7,707.61 2424.04,706.11 2422.5,705C 2424.49,703.681 2425.65,701.848 2426,699.5C 2426.92,695.21 2427.42,690.877 2427.5,686.5C 2425.5,686.5 2423.5,686.5 2421.5,686.5C 2421.17,688.5 2420.83,690.5 2420.5,692.5C 2418.8,692.966 2417.3,692.966 2416,692.5C 2415.61,689.151 2415.78,685.817 2416.5,682.5C 2420.53,682.943 2422.53,681.109 2422.5,677C 2424.76,677.698 2426.6,677.198 2428,675.5C 2429.18,673.364 2429.68,671.364 2429.5,669.5C 2431.11,667.539 2432.11,665.206 2432.5,662.5C 2433.61,662.443 2434.61,662.11 2435.5,661.5C 2435.5,662.5 2435.5,663.5 2435.5,664.5C 2436.83,664.5 2438.17,664.5 2439.5,664.5C 2439.5,662.833 2439.5,661.167 2439.5,659.5C 2440.93,659.579 2442.26,659.246 2443.5,658.5C 2445.68,655.827 2447.18,652.827 2448,649.5C 2451.71,647.705 2453.54,644.705 2453.5,640.5C 2455.53,639.452 2456.87,637.786 2457.5,635.5C 2458.32,634.614 2459.32,634.281 2460.5,634.5 Z"/></g>
<g><path style="opacity:1" fill="#96dcd8" d="M 2452.5,640.5 C 2450.92,642.142 2450.25,644.142 2450.5,646.5C 2449.5,646.5 2448.5,646.5 2447.5,646.5C 2447.78,643.28 2449.45,641.28 2452.5,640.5 Z"/></g>
<g><path style="opacity:1" fill="#21a5a3" d="M 2488.5,680.5 C 2485.5,684.332 2482,687.665 2478,690.5C 2477.52,691.448 2477.35,692.448 2477.5,693.5C 2476.45,693.351 2475.45,693.517 2474.5,694C 2471.99,696.677 2469.32,699.177 2466.5,701.5C 2466.41,700.504 2466.75,699.671 2467.5,699C 2465.93,696.962 2464.93,694.629 2464.5,692C 2465.62,691.161 2466.29,689.994 2466.5,688.5C 2468.84,674.487 2471.17,660.487 2473.5,646.5C 2475.5,646.5 2477.5,646.5 2479.5,646.5C 2479.5,644.833 2479.5,643.167 2479.5,641.5C 2482.91,641.384 2484.24,643.05 2483.5,646.5C 2487.85,646.541 2489.18,648.541 2487.5,652.5C 2484.7,653.004 2482.2,654.004 2480,655.5C 2478.62,662.107 2477.79,668.773 2477.5,675.5C 2478.82,675.67 2479.99,675.337 2481,674.5C 2482.73,667.951 2486.23,662.618 2491.5,658.5C 2492.64,660.421 2492.81,662.421 2492,664.5C 2491.21,668.082 2489.71,671.249 2487.5,674C 2488.17,675 2488.83,676 2489.5,677C 2489.01,678.138 2488.68,679.305 2488.5,680.5 Z"/></g>
<g><path style="opacity:1" fill="#95dbd6" d="M 2447.5,646.5 C 2446.91,647.766 2446.41,649.099 2446,650.5C 2442.95,654.624 2439.45,658.291 2435.5,661.5C 2434.61,662.11 2433.61,662.443 2432.5,662.5C 2433.51,660.661 2435.01,659.328 2437,658.5C 2438.57,655.846 2440.24,653.179 2442,650.5C 2443.65,648.79 2445.48,647.456 2447.5,646.5 Z"/></g>
<g><path style="opacity:1" fill="#29b7ac" d="M 2452.5,640.5 C 2452.83,640.5 2453.17,640.5 2453.5,640.5C 2453.54,644.705 2451.71,647.705 2448,649.5C 2447.18,652.827 2445.68,655.827 2443.5,658.5C 2442.26,659.246 2440.93,659.579 2439.5,659.5C 2439.5,661.167 2439.5,662.833 2439.5,664.5C 2438.17,664.5 2436.83,664.5 2435.5,664.5C 2435.5,663.5 2435.5,662.5 2435.5,661.5C 2439.45,658.291 2442.95,654.624 2446,650.5C 2446.41,649.099 2446.91,647.766 2447.5,646.5C 2448.5,646.5 2449.5,646.5 2450.5,646.5C 2450.25,644.142 2450.92,642.142 2452.5,640.5 Z"/></g>
<g><path style="opacity:0.082" fill="#95d5d1" d="M 2510.5,657.5 C 2513.06,658.385 2515.39,659.718 2517.5,661.5C 2519.48,665.133 2521.81,668.467 2524.5,671.5C 2523.5,670.833 2522.5,670.167 2521.5,669.5C 2520.76,669.631 2520.09,669.464 2519.5,669C 2517.2,665.965 2514.7,663.131 2512,660.5C 2507.81,663.164 2503.97,666.164 2500.5,669.5C 2499.17,670.5 2497.83,671.5 2496.5,672.5C 2498.93,667.739 2502.59,664.406 2507.5,662.5C 2506.92,659.715 2507.92,658.048 2510.5,657.5 Z"/></g>
<g><path style="opacity:0.998" fill="#119da8" d="M 663.5,665.5 C 677.504,665.333 691.504,665.5 705.5,666C 723.068,667.139 739.401,672.139 754.5,681C 772.573,694.183 780.406,712.016 778,734.5C 774.92,753.822 765.754,769.656 750.5,782C 741.605,788.616 731.939,793.95 721.5,798C 749.72,800.723 773.22,812.557 792,833.5C 808.712,856.978 812.046,882.311 802,909.5C 787.72,938.246 764.886,956.412 733.5,964C 720.559,967.43 707.392,968.93 694,968.5C 651.178,967.108 608.345,966.108 565.5,965.5C 564.141,963.694 564.475,962.194 566.5,961C 575.209,960.996 583.542,959.33 591.5,956C 595.381,953.072 597.881,949.239 599,944.5C 600.153,901.87 600.653,859.203 600.5,816.5C 600.653,773.797 600.153,731.13 599,688.5C 596.524,679.696 590.691,674.863 581.5,674C 576.416,673.827 571.416,673.161 566.5,672C 565.446,670.612 565.28,669.112 566,667.5C 592.76,667.278 619.594,667.111 646.5,667C 652.348,666.827 658.015,666.327 663.5,665.5 Z M 679.5,797.5 C 671.5,797.5 663.5,797.5 655.5,797.5C 655.5,764.167 655.5,730.833 655.5,697.5C 655.672,685.939 661.338,679.106 672.5,677C 704.654,674.484 722.154,689.318 725,721.5C 727.762,744.389 722.429,765.055 709,783.5C 700.981,791.9 691.147,796.567 679.5,797.5 Z M 664.5,811.5 C 661.713,812.477 658.713,812.81 655.5,812.5C 655.333,854.168 655.5,895.835 656,937.5C 657.099,945.903 661.599,951.403 669.5,954C 680.785,956.519 692.119,956.852 703.5,955C 731.564,950.41 747.064,933.91 750,905.5C 751.294,890.329 750.294,875.329 747,860.5C 740.25,834.415 723.75,818.582 697.5,813C 686.54,811.715 675.54,811.215 664.5,811.5 Z"/></g>
<g><path style="opacity:0.999" fill="#149ea9" d="M 259.5,699.5 C 258.502,735.996 258.168,772.663 258.5,809.5C 272.677,809.829 286.677,809.496 300.5,808.5C 313.873,808.541 326.207,805.041 337.5,798C 345.695,791.114 350.361,782.281 351.5,771.5C 352.833,770.167 354.167,770.167 355.5,771.5C 356.442,802.506 356.942,833.506 357,864.5C 355,867.167 353,867.167 351,864.5C 350.105,846.533 341.271,834.367 324.5,828C 319.625,826.198 314.625,824.865 309.5,824C 292.858,822.735 276.192,822.235 259.5,822.5C 259.333,860.168 259.5,897.835 260,935.5C 261.37,948.537 268.537,956.037 281.5,958C 291.135,959.078 300.801,959.745 310.5,960C 311.576,961.726 311.743,963.559 311,965.5C 262.999,965.522 214.999,965.522 167,965.5C 166.137,963.251 166.637,961.418 168.5,960C 176.209,959.762 183.876,959.096 191.5,958C 197.236,956.598 201.069,953.098 203,947.5C 203.945,943.886 204.612,940.219 205,936.5C 205.978,853.477 205.644,770.477 204,687.5C 202.87,681.72 199.703,677.553 194.5,675C 186.617,673.073 178.617,672.24 170.5,672.5C 170.67,671.178 170.337,670.011 169.5,669C 170.167,668 170.833,667 171.5,666C 239.833,665.333 308.167,665.333 376.5,666C 377.931,666.465 379.097,667.299 380,668.5C 380.547,690.508 380.88,712.508 381,734.5C 378.543,737.329 376.377,737.162 374.5,734C 366.108,702.631 345.774,684.964 313.5,681C 300.452,680.1 287.452,680.433 274.5,682C 265.746,684.589 260.746,690.422 259.5,699.5 Z"/></g>
<g><path style="opacity:1" fill="#8cd1ca" d="M 2538.5,652.5 C 2537.83,654.833 2537.17,657.167 2536.5,659.5C 2535.66,665.398 2534.32,671.065 2532.5,676.5C 2531.58,677.303 2530.58,677.47 2529.5,677C 2528.61,675.385 2527.61,673.885 2526.5,672.5C 2528.37,672.859 2529.87,673.859 2531,675.5C 2532.75,669.589 2534.08,663.589 2535,657.5C 2535.55,655.24 2536.72,653.574 2538.5,652.5 Z"/></g>
<g><path style="opacity:0.039" fill="#a0e0dd" d="M 2432.5,662.5 C 2432.11,665.206 2431.11,667.539 2429.5,669.5C 2425.58,671.095 2422.25,673.428 2419.5,676.5C 2420.95,674.867 2422.28,673.034 2423.5,671C 2425.24,669.306 2427.24,668.139 2429.5,667.5C 2429.26,664.966 2430.26,663.3 2432.5,662.5 Z"/></g>
<g><path style="opacity:0.071" fill="#b1e5e2" d="M 2419.5,676.5 C 2417.74,679.993 2415.07,682.66 2411.5,684.5C 2411.37,683.761 2411.54,683.094 2412,682.5C 2414.35,680.317 2416.85,678.317 2419.5,676.5 Z"/></g>
<g><path style="opacity:0.012" fill="#b7e5e2" d="M 2521.5,669.5 C 2522.5,670.167 2523.5,670.833 2524.5,671.5C 2524.84,672.338 2525.51,672.672 2526.5,672.5C 2527.61,673.885 2528.61,675.385 2529.5,677C 2530.58,677.47 2531.58,677.303 2532.5,676.5C 2532.49,678.686 2531.49,679.519 2529.5,679C 2526.22,676.234 2523.56,673.067 2521.5,669.5 Z"/></g>
<g><path style="opacity:0.043" fill="#afe4e3" d="M 2411.5,685.5 C 2407.85,689.64 2403.85,693.307 2399.5,696.5C 2400.23,694.265 2401.56,692.432 2403.5,691C 2406.07,688.92 2408.73,687.087 2411.5,685.5 Z"/></g>
<g><path style="opacity:1" fill="#1cb0ab" d="M 2429.5,669.5 C 2429.68,671.364 2429.18,673.364 2428,675.5C 2426.6,677.198 2424.76,677.698 2422.5,677C 2422.53,681.109 2420.53,682.943 2416.5,682.5C 2415.78,685.817 2415.61,689.151 2416,692.5C 2417.3,692.966 2418.8,692.966 2420.5,692.5C 2420.83,690.5 2421.17,688.5 2421.5,686.5C 2423.5,686.5 2425.5,686.5 2427.5,686.5C 2427.42,690.877 2426.92,695.21 2426,699.5C 2425.65,701.848 2424.49,703.681 2422.5,705C 2424.04,706.11 2424.7,707.61 2424.5,709.5C 2426.2,709.34 2427.87,709.506 2429.5,710C 2437.34,712.283 2437.34,713.783 2429.5,714.5C 2428.56,719.439 2425.56,721.772 2420.5,721.5C 2420.5,724.167 2420.5,726.833 2420.5,729.5C 2422.2,729.66 2423.87,729.494 2425.5,729C 2428.26,723.627 2432.59,720.794 2438.5,720.5C 2438.5,721.833 2438.5,723.167 2438.5,724.5C 2438.22,725.778 2437.55,726.778 2436.5,727.5C 2432.68,727.868 2429.68,729.535 2427.5,732.5C 2425.95,733.452 2424.29,733.785 2422.5,733.5C 2422.19,736.782 2420.86,739.448 2418.5,741.5C 2416.95,742.441 2415.28,743.107 2413.5,743.5C 2411.88,744.038 2410.22,744.371 2408.5,744.5C 2408.5,743.5 2408.5,742.5 2408.5,741.5C 2407.5,741.5 2406.5,741.5 2405.5,741.5C 2407.28,740.4 2409.28,739.566 2411.5,739C 2413.22,737.13 2414.22,734.963 2414.5,732.5C 2412.8,732.34 2411.13,732.506 2409.5,733C 2407.04,735.536 2404.04,737.036 2400.5,737.5C 2399.59,739.375 2398.26,740.708 2396.5,741.5C 2397.24,739.574 2398.24,737.741 2399.5,736C 2402.41,735.867 2404.75,734.7 2406.5,732.5C 2406.29,731.914 2405.96,731.414 2405.5,731C 2403.19,730.503 2400.86,730.337 2398.5,730.5C 2398.5,731.5 2398.5,732.5 2398.5,733.5C 2397.17,733.5 2395.83,733.5 2394.5,733.5C 2394.5,732.5 2394.5,731.5 2394.5,730.5C 2397.41,729.027 2398.08,726.86 2396.5,724C 2390.74,724.224 2389.08,721.724 2391.5,716.5C 2392.5,716.5 2393.5,716.5 2394.5,716.5C 2394.5,714.833 2394.5,713.167 2394.5,711.5C 2396.77,711.859 2398.6,711.192 2400,709.5C 2400.14,705.766 2399.64,702.099 2398.5,698.5C 2398.83,697.833 2399.17,697.167 2399.5,696.5C 2403.85,693.307 2407.85,689.64 2411.5,685.5C 2411.5,685.167 2411.5,684.833 2411.5,684.5C 2415.07,682.66 2417.74,679.993 2419.5,676.5C 2422.25,673.428 2425.58,671.095 2429.5,669.5 Z"/></g>
<g><path style="opacity:0.13" fill="#a5dbdf" d="M 450.5,593.5 C 450.5,627.833 450.5,662.167 450.5,696.5C 468.167,696.5 485.833,696.5 503.5,696.5C 485.674,697.497 467.674,697.83 449.5,697.5C 449.168,662.663 449.502,627.996 450.5,593.5 Z"/></g>
<g><path style="opacity:1" fill="#30a4aa" d="M 2466.5,701.5 C 2464.73,703.89 2462.4,705.557 2459.5,706.5C 2458.91,704.078 2457.41,702.411 2455,701.5C 2453.55,696.115 2455.38,694.449 2460.5,696.5C 2461.32,699.663 2463.32,701.33 2466.5,701.5 Z"/></g>
<g><path style="opacity:0.027" fill="#b2e3e2" d="M 2399.5,696.5 C 2399.17,697.167 2398.83,697.833 2398.5,698.5C 2396.23,698.957 2394.89,700.29 2394.5,702.5C 2392.83,703.833 2391.17,705.167 2389.5,706.5C 2391.51,701.79 2394.84,698.456 2399.5,696.5 Z"/></g>
<g><path style="opacity:0.282" fill="#93d4d9" d="M 655.5,697.5 C 655.5,730.833 655.5,764.167 655.5,797.5C 663.5,797.5 671.5,797.5 679.5,797.5C 671.35,798.493 663.017,798.826 654.5,798.5C 654.168,764.663 654.502,730.996 655.5,697.5 Z"/></g>
<g><path style="opacity:1" fill="#27b1b3" d="M 2398.5,698.5 C 2399.64,702.099 2400.14,705.766 2400,709.5C 2398.6,711.192 2396.77,711.859 2394.5,711.5C 2394.5,713.167 2394.5,714.833 2394.5,716.5C 2393.5,716.5 2392.5,716.5 2391.5,716.5C 2389.08,721.724 2390.74,724.224 2396.5,724C 2398.08,726.86 2397.41,729.027 2394.5,730.5C 2390.49,730.462 2387.83,728.462 2386.5,724.5C 2385.25,723.96 2384.09,723.293 2383,722.5C 2382.5,720.19 2382.34,717.857 2382.5,715.5C 2384.2,715.66 2385.87,715.494 2387.5,715C 2386.94,713.434 2387.61,712.101 2389.5,711C 2395.14,710.552 2396.81,707.719 2394.5,702.5C 2394.89,700.29 2396.23,698.957 2398.5,698.5 Z"/></g>
<g><path style="opacity:0.333" fill="#96d6da" d="M 496.5,711.5 C 481.167,711.5 465.833,711.5 450.5,711.5C 450.5,749.5 450.5,787.5 450.5,825.5C 449.501,787.337 449.168,749.004 449.5,710.5C 465.342,710.17 481.009,710.504 496.5,711.5 Z"/></g>
<g><path style="opacity:0.055" fill="#a4dfdd" d="M 2389.5,706.5 C 2389.49,708.017 2388.82,709.184 2387.5,710C 2382.35,712.686 2377.68,715.853 2373.5,719.5C 2377.67,713.747 2383,709.414 2389.5,706.5 Z"/></g>
<g><path style="opacity:0.055" fill="#aadfdf" d="M 2500.5,669.5 C 2479.33,694.003 2455.67,715.669 2429.5,734.5C 2431.64,731.939 2433.97,729.605 2436.5,727.5C 2437.55,726.778 2438.22,725.778 2438.5,724.5C 2445.55,719.107 2452.55,713.774 2459.5,708.5C 2459.5,707.833 2459.5,707.167 2459.5,706.5C 2462.4,705.557 2464.73,703.89 2466.5,701.5C 2469.32,699.177 2471.99,696.677 2474.5,694C 2475.45,693.517 2476.45,693.351 2477.5,693.5C 2477.35,692.448 2477.52,691.448 2478,690.5C 2482,687.665 2485.5,684.332 2488.5,680.5C 2491.53,678.14 2494.19,675.473 2496.5,672.5C 2497.83,671.5 2499.17,670.5 2500.5,669.5 Z"/></g>
<g><path style="opacity:0.063" fill="#b0e2e4" d="M 2373.5,719.5 C 2372.09,721.914 2370.09,723.581 2367.5,724.5C 2368.91,722.086 2370.91,720.419 2373.5,719.5 Z"/></g>
<g><path style="opacity:1" fill="#1eb6b1" d="M 2394.5,702.5 C 2396.81,707.719 2395.14,710.552 2389.5,711C 2387.61,712.101 2386.94,713.434 2387.5,715C 2385.87,715.494 2384.2,715.66 2382.5,715.5C 2382.34,717.857 2382.5,720.19 2383,722.5C 2384.09,723.293 2385.25,723.96 2386.5,724.5C 2387.83,728.462 2390.49,730.462 2394.5,730.5C 2394.5,731.5 2394.5,732.5 2394.5,733.5C 2395.83,733.5 2397.17,733.5 2398.5,733.5C 2398.5,732.5 2398.5,731.5 2398.5,730.5C 2400.86,730.337 2403.19,730.503 2405.5,731C 2405.96,731.414 2406.29,731.914 2406.5,732.5C 2404.75,734.7 2402.41,735.867 2399.5,736C 2398.24,737.741 2397.24,739.574 2396.5,741.5C 2395.69,742.837 2394.52,743.837 2393,744.5C 2392.51,746.134 2392.34,747.801 2392.5,749.5C 2394.65,749.628 2396.65,749.128 2398.5,748C 2400.74,745.622 2403.08,743.456 2405.5,741.5C 2406.5,741.5 2407.5,741.5 2408.5,741.5C 2408.5,742.5 2408.5,743.5 2408.5,744.5C 2410.22,744.371 2411.88,744.038 2413.5,743.5C 2409.77,747.553 2405.44,750.886 2400.5,753.5C 2398.07,753.884 2395.74,754.551 2393.5,755.5C 2393.72,756.675 2393.39,757.675 2392.5,758.5C 2390.17,760.399 2387.5,761.566 2384.5,762C 2383.11,764.239 2381.44,766.072 2379.5,767.5C 2377.63,768.263 2375.96,769.263 2374.5,770.5C 2370.09,770.938 2368.43,768.938 2369.5,764.5C 2372.19,764.664 2374.85,764.497 2377.5,764C 2379.03,762.113 2381.03,761.113 2383.5,761C 2384.34,759.989 2384.67,758.822 2384.5,757.5C 2386.83,757.5 2389.17,757.5 2391.5,757.5C 2391.5,755.833 2391.5,754.167 2391.5,752.5C 2389.83,752.5 2388.17,752.5 2386.5,752.5C 2386.67,753.822 2386.34,754.989 2385.5,756C 2381.51,757.117 2377.51,757.784 2373.5,758C 2371.2,756.42 2370.87,754.42 2372.5,752C 2370.37,750.013 2369.37,747.513 2369.5,744.5C 2368.32,744.719 2367.32,744.386 2366.5,743.5C 2365.65,741.591 2365.32,739.591 2365.5,737.5C 2362.4,736.907 2360.07,737.907 2358.5,740.5C 2359.89,742.109 2360.89,743.942 2361.5,746C 2357.78,755.125 2355.62,764.625 2355,774.5C 2356.4,775.748 2357.9,776.748 2359.5,777.5C 2358.17,779.167 2356.83,780.833 2355.5,782.5C 2353.5,782.833 2351.5,783.167 2349.5,783.5C 2350.45,780.792 2350.45,778.126 2349.5,775.5C 2348.71,775.069 2347.87,774.735 2347,774.5C 2344.06,775.423 2341.23,776.423 2338.5,777.5C 2338.07,773.575 2339.07,770.075 2341.5,767C 2340.33,764.167 2339.17,761.333 2338,758.5C 2335.16,757.065 2332.99,755.065 2331.5,752.5C 2331.95,751.542 2332.62,750.708 2333.5,750C 2341.08,747.589 2347.08,743.089 2351.5,736.5C 2353.97,734.965 2356.63,733.965 2359.5,733.5C 2359.5,732.5 2359.5,731.5 2359.5,730.5C 2362.47,729.003 2365.14,727.003 2367.5,724.5C 2370.09,723.581 2372.09,721.914 2373.5,719.5C 2377.68,715.853 2382.35,712.686 2387.5,710C 2388.82,709.184 2389.49,708.017 2389.5,706.5C 2391.17,705.167 2392.83,703.833 2394.5,702.5 Z"/></g>
<g><path style="opacity:1" fill="#8ed7d4" d="M 2367.5,724.5 C 2365.14,727.003 2362.47,729.003 2359.5,730.5C 2359.5,731.5 2359.5,732.5 2359.5,733.5C 2356.63,733.965 2353.97,734.965 2351.5,736.5C 2352.47,734.807 2353.81,733.307 2355.5,732C 2359.4,729.258 2363.4,726.758 2367.5,724.5 Z"/></g>
<g><path style="opacity:1" fill="#57c1bf" d="M 2436.5,727.5 C 2433.97,729.605 2431.64,731.939 2429.5,734.5C 2425.95,735.385 2423.29,737.385 2421.5,740.5C 2420.39,740.557 2419.39,740.89 2418.5,741.5C 2420.86,739.448 2422.19,736.782 2422.5,733.5C 2424.29,733.785 2425.95,733.452 2427.5,732.5C 2429.68,729.535 2432.68,727.868 2436.5,727.5 Z"/></g>
<g><path style="opacity:0.016" fill="#b6e3e6" d="M 2429.5,734.5 C 2427.12,736.878 2424.45,738.878 2421.5,740.5C 2423.29,737.385 2425.95,735.385 2429.5,734.5 Z"/></g>
<g><path style="opacity:1" fill="#9edbdd" d="M 2351.5,736.5 C 2347.08,743.089 2341.08,747.589 2333.5,750C 2332.62,750.708 2331.95,751.542 2331.5,752.5C 2329.69,753.63 2327.69,754.296 2325.5,754.5C 2333.94,748.035 2342.61,742.035 2351.5,736.5 Z"/></g>
<g><path style="opacity:0.953" fill="#45b3bc" d="M 138.5,712.5 C 138.197,723.535 137.363,734.535 136,745.5C 135.722,746.416 135.222,747.082 134.5,747.5C 135.516,735.657 136.849,723.99 138.5,712.5 Z"/></g>
<g><path style="opacity:1" fill="#25acae" d="M 2405.5,741.5 C 2403.08,743.456 2400.74,745.622 2398.5,748C 2396.65,749.128 2394.65,749.628 2392.5,749.5C 2392.34,747.801 2392.51,746.134 2393,744.5C 2394.52,743.837 2395.69,742.837 2396.5,741.5C 2398.26,740.708 2399.59,739.375 2400.5,737.5C 2404.04,737.036 2407.04,735.536 2409.5,733C 2411.13,732.506 2412.8,732.34 2414.5,732.5C 2414.22,734.963 2413.22,737.13 2411.5,739C 2409.28,739.566 2407.28,740.4 2405.5,741.5 Z"/></g>
<g><path style="opacity:1" fill="#a8e2e2" d="M 2421.5,740.5 C 2413.34,747.993 2404.34,754.326 2394.5,759.5C 2396.07,756.972 2398.07,754.972 2400.5,753.5C 2405.44,750.886 2409.77,747.553 2413.5,743.5C 2415.28,743.107 2416.95,742.441 2418.5,741.5C 2419.39,740.89 2420.39,740.557 2421.5,740.5 Z"/></g>
<g><path style="opacity:1" fill="#24b3b4" d="M 2374.5,770.5 C 2371.73,772.064 2369.06,773.897 2366.5,776C 2364.26,776.977 2361.93,777.477 2359.5,777.5C 2357.9,776.748 2356.4,775.748 2355,774.5C 2355.62,764.625 2357.78,755.125 2361.5,746C 2360.89,743.942 2359.89,742.109 2358.5,740.5C 2360.07,737.907 2362.4,736.907 2365.5,737.5C 2365.32,739.591 2365.65,741.591 2366.5,743.5C 2367.32,744.386 2368.32,744.719 2369.5,744.5C 2369.37,747.513 2370.37,750.013 2372.5,752C 2370.87,754.42 2371.2,756.42 2373.5,758C 2377.51,757.784 2381.51,757.117 2385.5,756C 2386.34,754.989 2386.67,753.822 2386.5,752.5C 2388.17,752.5 2389.83,752.5 2391.5,752.5C 2391.5,754.167 2391.5,755.833 2391.5,757.5C 2389.17,757.5 2386.83,757.5 2384.5,757.5C 2384.67,758.822 2384.34,759.989 2383.5,761C 2381.03,761.113 2379.03,762.113 2377.5,764C 2374.85,764.497 2372.19,764.664 2369.5,764.5C 2368.43,768.938 2370.09,770.938 2374.5,770.5 Z"/></g>
<g><path style="opacity:1" fill="#a6e3e0" d="M 2325.5,754.5 C 2324.56,756.688 2322.89,758.021 2320.5,758.5C 2321.66,756.613 2323.32,755.279 2325.5,754.5 Z"/></g>
<g><path style="opacity:1" fill="#6bcfc9" d="M 2400.5,753.5 C 2398.07,754.972 2396.07,756.972 2394.5,759.5C 2393.2,760.488 2391.87,761.488 2390.5,762.5C 2388.03,762.654 2386.03,763.654 2384.5,765.5C 2382.83,766.167 2381.17,766.833 2379.5,767.5C 2381.44,766.072 2383.11,764.239 2384.5,762C 2387.5,761.566 2390.17,760.399 2392.5,758.5C 2393.39,757.675 2393.72,756.675 2393.5,755.5C 2395.74,754.551 2398.07,753.884 2400.5,753.5 Z"/></g>
<g><path style="opacity:0.02" fill="#b7eae7" d="M 2390.5,762.5 C 2389.09,764.539 2387.09,765.539 2384.5,765.5C 2386.03,763.654 2388.03,762.654 2390.5,762.5 Z"/></g>
<g><path style="opacity:1" fill="#27bbbb" d="M 2331.5,752.5 C 2332.99,755.065 2335.16,757.065 2338,758.5C 2339.17,761.333 2340.33,764.167 2341.5,767C 2339.07,770.075 2338.07,773.575 2338.5,777.5C 2341.23,776.423 2344.06,775.423 2347,774.5C 2347.87,774.735 2348.71,775.069 2349.5,775.5C 2350.45,778.126 2350.45,780.792 2349.5,783.5C 2346.21,785.14 2343.21,787.14 2340.5,789.5C 2339.17,790.167 2337.83,790.833 2336.5,791.5C 2331.48,791.749 2326.82,793.082 2322.5,795.5C 2317.03,796.635 2311.69,797.468 2306.5,798C 2304.83,799.333 2303.17,800.667 2301.5,802C 2302.97,802.71 2303.64,803.876 2303.5,805.5C 2303.5,806.5 2303.5,807.5 2303.5,808.5C 2299.72,809.648 2296.05,810.982 2292.5,812.5C 2288.24,812.702 2284.24,813.702 2280.5,815.5C 2279.84,812.159 2281.18,810.159 2284.5,809.5C 2283.68,808.614 2282.68,808.281 2281.5,808.5C 2281.5,807.167 2281.5,805.833 2281.5,804.5C 2287.81,804.221 2288.81,801.887 2284.5,797.5C 2283.01,799.934 2281.35,802.267 2279.5,804.5C 2278.21,803.902 2276.87,803.402 2275.5,803C 2274.26,802.31 2274.26,801.81 2275.5,801.5C 2278.99,803.212 2280.99,802.045 2281.5,798C 2279.06,794.978 2276.73,791.811 2274.5,788.5C 2278.65,785.688 2283.31,784.354 2288.5,784.5C 2288.5,783.167 2288.5,781.833 2288.5,780.5C 2292.6,781.103 2295.76,779.769 2298,776.5C 2298.77,776.645 2299.44,776.978 2300,777.5C 2303,775.455 2306.16,774.788 2309.5,775.5C 2310.45,777.045 2310.79,778.712 2310.5,780.5C 2311.83,780.5 2313.17,780.5 2314.5,780.5C 2314.19,776.732 2313.36,773.065 2312,769.5C 2311.01,768.934 2310.17,768.267 2309.5,767.5C 2311.78,764.528 2314.78,762.861 2318.5,762.5C 2318.53,760.801 2319.19,759.467 2320.5,758.5C 2322.89,758.021 2324.56,756.688 2325.5,754.5C 2327.69,754.296 2329.69,753.63 2331.5,752.5 Z"/></g>
<g><path style="opacity:1" fill="#a5e4e2" d="M 2320.5,758.5 C 2319.19,759.467 2318.53,760.801 2318.5,762.5C 2314.78,762.861 2311.78,764.528 2309.5,767.5C 2308.13,767.343 2306.79,767.51 2305.5,768C 2302.36,770.265 2299.03,772.098 2295.5,773.5C 2295.95,772.542 2296.62,771.708 2297.5,771C 2305.52,767.289 2313.19,763.122 2320.5,758.5 Z"/></g>
<g><path style="opacity:0.035" fill="#aae3e3" d="M 2384.5,765.5 C 2375,772.956 2364.67,779.29 2353.5,784.5C 2354.17,783.833 2354.83,783.167 2355.5,782.5C 2356.83,780.833 2358.17,779.167 2359.5,777.5C 2361.93,777.477 2364.26,776.977 2366.5,776C 2369.06,773.897 2371.73,772.064 2374.5,770.5C 2375.96,769.263 2377.63,768.263 2379.5,767.5C 2381.17,766.833 2382.83,766.167 2384.5,765.5 Z"/></g>
<g><path style="opacity:1" fill="#99e4e2" d="M 2295.5,773.5 C 2294.6,775.727 2292.93,776.727 2290.5,776.5C 2290.5,777.5 2290.5,778.5 2290.5,779.5C 2287.83,779.833 2285.17,780.167 2282.5,780.5C 2286.64,777.929 2290.97,775.595 2295.5,773.5 Z"/></g>
<g><path style="opacity:0.094" fill="#aae8e7" d="M 2282.5,780.5 C 2281.15,782.738 2279.15,784.071 2276.5,784.5C 2278.03,782.631 2280.03,781.298 2282.5,780.5 Z"/></g>
<g><path style="opacity:1" fill="#b2e7e7" d="M 2276.5,784.5 C 2274.81,786.818 2272.48,787.818 2269.5,787.5C 2271.6,786.088 2273.94,785.088 2276.5,784.5 Z"/></g>
<g><path style="opacity:1" fill="#10c3ba" d="M 2302.5,780.5 C 2304.17,780.5 2305.83,780.5 2307.5,780.5C 2307.17,783.511 2305.84,786.011 2303.5,788C 2300.88,787.917 2298.21,787.75 2295.5,787.5C 2295.5,785.833 2295.5,784.167 2295.5,782.5C 2297.53,782.662 2299.53,782.495 2301.5,782C 2302.06,781.617 2302.39,781.117 2302.5,780.5 Z"/></g>
<g><path style="opacity:1" fill="#6bcccd" d="M 2355.5,782.5 C 2354.83,783.167 2354.17,783.833 2353.5,784.5C 2348.82,785.346 2344.48,787.013 2340.5,789.5C 2343.21,787.14 2346.21,785.14 2349.5,783.5C 2351.5,783.167 2353.5,782.833 2355.5,782.5 Z"/></g>
<g><path style="opacity:0.008" fill="#b2e4e6" d="M 2353.5,784.5 C 2348,787.751 2342.33,790.751 2336.5,793.5C 2336.5,792.833 2336.5,792.167 2336.5,791.5C 2337.83,790.833 2339.17,790.167 2340.5,789.5C 2344.48,787.013 2348.82,785.346 2353.5,784.5 Z"/></g>
<g><path style="opacity:0.027" fill="#aee7e5" d="M 2269.5,787.5 C 2265.59,791.21 2260.92,793.71 2255.5,795C 2254.62,795.708 2253.95,796.542 2253.5,797.5C 2252.04,797.433 2250.71,797.766 2249.5,798.5C 2250.94,796.917 2252.6,795.417 2254.5,794C 2259.75,792.308 2264.75,790.142 2269.5,787.5 Z"/></g>
<g><path style="opacity:1" fill="#2ac6c1" d="M 2309.5,767.5 C 2310.17,768.267 2311.01,768.934 2312,769.5C 2313.36,773.065 2314.19,776.732 2314.5,780.5C 2313.17,780.5 2311.83,780.5 2310.5,780.5C 2310.79,778.712 2310.45,777.045 2309.5,775.5C 2306.16,774.788 2303,775.455 2300,777.5C 2299.44,776.978 2298.77,776.645 2298,776.5C 2295.76,779.769 2292.6,781.103 2288.5,780.5C 2288.5,781.833 2288.5,783.167 2288.5,784.5C 2283.31,784.354 2278.65,785.688 2274.5,788.5C 2276.73,791.811 2279.06,794.978 2281.5,798C 2280.99,802.045 2278.99,803.212 2275.5,801.5C 2275.11,794.808 2272.11,793.142 2266.5,796.5C 2264.42,795.238 2262.42,795.405 2260.5,797C 2262.93,798.087 2262.6,798.587 2259.5,798.5C 2259.5,799.5 2259.5,800.5 2259.5,801.5C 2255.76,802.401 2253.76,801.068 2253.5,797.5C 2253.95,796.542 2254.62,795.708 2255.5,795C 2260.92,793.71 2265.59,791.21 2269.5,787.5C 2272.48,787.818 2274.81,786.818 2276.5,784.5C 2279.15,784.071 2281.15,782.738 2282.5,780.5C 2285.17,780.167 2287.83,779.833 2290.5,779.5C 2290.5,778.5 2290.5,777.5 2290.5,776.5C 2292.93,776.727 2294.6,775.727 2295.5,773.5C 2299.03,772.098 2302.36,770.265 2305.5,768C 2306.79,767.51 2308.13,767.343 2309.5,767.5 Z"/></g>
<g><path style="opacity:1" fill="#5ecbc7" d="M 2336.5,791.5 C 2336.5,792.167 2336.5,792.833 2336.5,793.5C 2336.17,793.5 2335.83,793.5 2335.5,793.5C 2332.23,794.758 2328.89,795.925 2325.5,797C 2324.69,798.113 2324.03,799.279 2323.5,800.5C 2322.83,800.5 2322.17,800.5 2321.5,800.5C 2319.88,801.038 2318.22,801.371 2316.5,801.5C 2318.03,799.87 2320.03,799.037 2322.5,799C 2323.68,797.855 2323.68,796.688 2322.5,795.5C 2326.82,793.082 2331.48,791.749 2336.5,791.5 Z"/></g>
<g><path style="opacity:0.035" fill="#b3e8e6" d="M 2335.5,793.5 C 2332,796.656 2328,798.989 2323.5,800.5C 2324.03,799.279 2324.69,798.113 2325.5,797C 2328.89,795.925 2332.23,794.758 2335.5,793.5 Z"/></g>
<g><path style="opacity:1" fill="#1fc3bc" d="M 2322.5,795.5 C 2323.68,796.688 2323.68,797.855 2322.5,799C 2320.03,799.037 2318.03,799.87 2316.5,801.5C 2313.91,802.128 2311.58,803.295 2309.5,805C 2307.53,805.495 2305.53,805.662 2303.5,805.5C 2303.64,803.876 2302.97,802.71 2301.5,802C 2303.17,800.667 2304.83,799.333 2306.5,798C 2311.69,797.468 2317.03,796.635 2322.5,795.5 Z"/></g>
<g><path style="opacity:1" fill="#9be9e7" d="M 2249.5,798.5 C 2248.08,799.451 2246.41,799.784 2244.5,799.5C 2244.5,800.5 2244.5,801.5 2244.5,802.5C 2241.77,802.171 2239.44,802.837 2237.5,804.5C 2234.86,805.454 2232.19,806.454 2229.5,807.5C 2234.66,801.597 2241.33,798.597 2249.5,798.5 Z"/></g>
<g><path style="opacity:1" fill="#1dc6c1" d="M 2276.5,815.5 C 2276.5,816.5 2276.5,817.5 2276.5,818.5C 2273.17,819.167 2269.83,819.833 2266.5,820.5C 2265.29,819.048 2265.62,817.714 2267.5,816.5C 2264.91,815.52 2262.25,815.187 2259.5,815.5C 2259.24,808.702 2262.24,804.369 2268.5,802.5C 2270.13,803.046 2271.8,803.38 2273.5,803.5C 2273.63,806.595 2275.29,808.428 2278.5,809C 2277.5,809.167 2276.5,809.333 2275.5,809.5C 2273.33,808.454 2271.16,807.454 2269,806.5C 2268.17,806.667 2267.33,806.833 2266.5,807C 2267.56,808.188 2268.9,808.688 2270.5,808.5C 2270.17,810.5 2269.83,812.5 2269.5,814.5C 2271.81,814.993 2274.14,815.326 2276.5,815.5 Z"/></g>
<g><path style="opacity:0.13" fill="#a5dcdf" d="M 259.5,699.5 C 259.5,735.833 259.5,772.167 259.5,808.5C 273.167,808.5 286.833,808.5 300.5,808.5C 286.677,809.496 272.677,809.829 258.5,809.5C 258.168,772.663 258.502,735.996 259.5,699.5 Z"/></g>
<g><path style="opacity:1" fill="#2bc5c6" d="M 2275.5,801.5 C 2274.26,801.81 2274.26,802.31 2275.5,803C 2276.87,803.402 2278.21,803.902 2279.5,804.5C 2281.35,802.267 2283.01,799.934 2284.5,797.5C 2288.81,801.887 2287.81,804.221 2281.5,804.5C 2281.5,805.833 2281.5,807.167 2281.5,808.5C 2282.68,808.281 2283.68,808.614 2284.5,809.5C 2281.18,810.159 2279.84,812.159 2280.5,815.5C 2279.17,815.5 2277.83,815.5 2276.5,815.5C 2274.14,815.326 2271.81,814.993 2269.5,814.5C 2269.83,812.5 2270.17,810.5 2270.5,808.5C 2268.9,808.688 2267.56,808.188 2266.5,807C 2267.33,806.833 2268.17,806.667 2269,806.5C 2271.16,807.454 2273.33,808.454 2275.5,809.5C 2276.5,809.333 2277.5,809.167 2278.5,809C 2275.29,808.428 2273.63,806.595 2273.5,803.5C 2271.8,803.38 2270.13,803.046 2268.5,802.5C 2262.24,804.369 2259.24,808.702 2259.5,815.5C 2262.25,815.187 2264.91,815.52 2267.5,816.5C 2265.62,817.714 2265.29,819.048 2266.5,820.5C 2264.74,821.461 2262.74,821.795 2260.5,821.5C 2260.5,822.5 2260.5,823.5 2260.5,824.5C 2257.17,824.018 2254.5,825.018 2252.5,827.5C 2247.71,829.141 2242.71,830.141 2237.5,830.5C 2235.94,829.215 2234.6,827.715 2233.5,826C 2235.96,820.12 2233.96,817.12 2227.5,817C 2226.22,814.868 2226.22,812.702 2227.5,810.5C 2230.77,809.513 2234.1,809.18 2237.5,809.5C 2237.5,807.833 2237.5,806.167 2237.5,804.5C 2239.44,802.837 2241.77,802.171 2244.5,802.5C 2244.5,801.5 2244.5,800.5 2244.5,799.5C 2246.41,799.784 2248.08,799.451 2249.5,798.5C 2250.71,797.766 2252.04,797.433 2253.5,797.5C 2253.76,801.068 2255.76,802.401 2259.5,801.5C 2259.5,800.5 2259.5,799.5 2259.5,798.5C 2262.6,798.587 2262.93,798.087 2260.5,797C 2262.42,795.405 2264.42,795.238 2266.5,796.5C 2272.11,793.142 2275.11,794.808 2275.5,801.5 Z"/></g>
<g><path style="opacity:0.894" fill="#6bc0c7" d="M 148.5,804.5 C 148.283,810.36 147.617,816.027 146.5,821.5C 146.334,816.821 146.501,812.155 147,807.5C 147.232,806.263 147.732,805.263 148.5,804.5 Z"/></g>
<g><path style="opacity:1" fill="#a6e4e2" d="M 2321.5,800.5 C 2315.06,804.27 2308.39,807.77 2301.5,811C 2296,813.419 2290.34,815.252 2284.5,816.5C 2286.99,814.872 2289.66,813.538 2292.5,812.5C 2296.05,810.982 2299.72,809.648 2303.5,808.5C 2303.5,807.5 2303.5,806.5 2303.5,805.5C 2305.53,805.662 2307.53,805.495 2309.5,805C 2311.58,803.295 2313.91,802.128 2316.5,801.5C 2318.22,801.371 2319.88,801.038 2321.5,800.5 Z"/></g>
<g><path style="opacity:1" fill="#9eeae7" d="M 2229.5,807.5 C 2226.18,809.739 2222.51,811.073 2218.5,811.5C 2216.95,812.441 2215.28,813.107 2213.5,813.5C 2214.57,812.115 2215.91,810.949 2217.5,810C 2221.45,808.846 2225.45,808.013 2229.5,807.5 Z"/></g>
<g><path style="opacity:1" fill="#65d6d5" d="M 2292.5,812.5 C 2289.66,813.538 2286.99,814.872 2284.5,816.5C 2282.4,816.201 2280.4,816.534 2278.5,817.5C 2275.65,818.843 2272.98,820.51 2270.5,822.5C 2270.17,822.5 2269.83,822.5 2269.5,822.5C 2264.66,822.68 2260.66,824.347 2257.5,827.5C 2255.83,827.5 2254.17,827.5 2252.5,827.5C 2254.5,825.018 2257.17,824.018 2260.5,824.5C 2260.5,823.5 2260.5,822.5 2260.5,821.5C 2262.74,821.795 2264.74,821.461 2266.5,820.5C 2269.83,819.833 2273.17,819.167 2276.5,818.5C 2276.5,817.5 2276.5,816.5 2276.5,815.5C 2277.83,815.5 2279.17,815.5 2280.5,815.5C 2284.24,813.702 2288.24,812.702 2292.5,812.5 Z"/></g>
<g><path style="opacity:0.039" fill="#a9e8e7" d="M 2284.5,816.5 C 2280.27,819.398 2275.61,821.398 2270.5,822.5C 2272.98,820.51 2275.65,818.843 2278.5,817.5C 2280.4,816.534 2282.4,816.201 2284.5,816.5 Z"/></g>
<g><path style="opacity:0.953" fill="#3fb0ba" d="M 129.5,803.5 C 129.448,810.345 129.115,817.178 128.5,824C 128.475,826.929 127.809,829.429 126.5,831.5C 126.985,821.969 127.985,812.636 129.5,803.5 Z"/></g>
<g><path style="opacity:1" fill="#a2e9e7" d="M 2213.5,813.5 C 2210.5,815.263 2207.17,816.429 2203.5,817C 2201.16,818.641 2198.83,820.141 2196.5,821.5C 2186.41,824.148 2176.41,826.982 2166.5,830C 2163.85,830.497 2161.19,830.664 2158.5,830.5C 2163.73,829.05 2169.06,827.383 2174.5,825.5C 2176.61,826.949 2178.27,826.449 2179.5,824C 2180.78,823.316 2181.95,823.483 2183,824.5C 2183.83,823.667 2184.67,822.833 2185.5,822C 2189.47,821.517 2193.13,820.184 2196.5,818C 2202.11,816.18 2207.78,814.68 2213.5,813.5 Z"/></g>
<g><path style="opacity:1" fill="#27cac8" d="M 2237.5,804.5 C 2237.5,806.167 2237.5,807.833 2237.5,809.5C 2234.1,809.18 2230.77,809.513 2227.5,810.5C 2226.22,812.702 2226.22,814.868 2227.5,817C 2233.96,817.12 2235.96,820.12 2233.5,826C 2234.6,827.715 2235.94,829.215 2237.5,830.5C 2236.73,831.172 2236.07,832.005 2235.5,833C 2230.92,833.665 2226.59,834.832 2222.5,836.5C 2219.5,836.5 2216.5,836.5 2213.5,836.5C 2212.57,832.631 2210.9,829.298 2208.5,826.5C 2215.17,825.5 2221.83,824.5 2228.5,823.5C 2228.65,822.448 2228.48,821.448 2228,820.5C 2226.1,819.842 2224.6,818.675 2223.5,817C 2221.1,816.186 2218.76,816.353 2216.5,817.5C 2218.48,818.216 2220.15,819.383 2221.5,821C 2217.83,821.677 2214.5,820.844 2211.5,818.5C 2209.48,819.706 2207.48,819.706 2205.5,818.5C 2209.18,816.347 2213.18,815.014 2217.5,814.5C 2218.13,813.583 2218.46,812.583 2218.5,811.5C 2222.51,811.073 2226.18,809.739 2229.5,807.5C 2232.19,806.454 2234.86,805.454 2237.5,804.5 Z"/></g>
<g><path style="opacity:0.016" fill="#b8ebec" d="M 2269.5,822.5 C 2265.59,824.165 2261.59,825.832 2257.5,827.5C 2260.66,824.347 2264.66,822.68 2269.5,822.5 Z"/></g>
<g><path style="opacity:1" fill="#26cdc8" d="M 2196.5,821.5 C 2198.47,821.261 2200.3,821.594 2202,822.5C 2202.45,824.409 2201.61,825.576 2199.5,826C 2193.66,827.786 2187.66,828.786 2181.5,829C 2180.28,830.74 2178.62,831.74 2176.5,832C 2170.59,832.046 2164.92,833.046 2159.5,835C 2161.93,836.145 2164.26,837.478 2166.5,839C 2163.49,841.169 2160.16,841.836 2156.5,841C 2156.17,840.667 2155.83,840.333 2155.5,840C 2159.3,838.447 2159.3,837.114 2155.5,836C 2154.75,835.329 2154.41,834.496 2154.5,833.5C 2156.97,833.912 2158.31,832.912 2158.5,830.5C 2161.19,830.664 2163.85,830.497 2166.5,830C 2176.41,826.982 2186.41,824.148 2196.5,821.5 Z"/></g>
<g><path style="opacity:0.02" fill="#a9eae9" d="M 2158.5,830.5 C 2158.31,832.912 2156.97,833.912 2154.5,833.5C 2154.17,833.5 2153.83,833.5 2153.5,833.5C 2150.21,834.257 2146.88,834.924 2143.5,835.5C 2143.61,834.883 2143.94,834.383 2144.5,834C 2149.41,833.706 2154.08,832.54 2158.5,830.5 Z"/></g>
<g><path style="opacity:1" fill="#33cbd1" d="M 2218.5,811.5 C 2218.46,812.583 2218.13,813.583 2217.5,814.5C 2213.18,815.014 2209.18,816.347 2205.5,818.5C 2207.48,819.706 2209.48,819.706 2211.5,818.5C 2214.5,820.844 2217.83,821.677 2221.5,821C 2220.15,819.383 2218.48,818.216 2216.5,817.5C 2218.76,816.353 2221.1,816.186 2223.5,817C 2224.6,818.675 2226.1,819.842 2228,820.5C 2228.48,821.448 2228.65,822.448 2228.5,823.5C 2221.83,824.5 2215.17,825.5 2208.5,826.5C 2210.9,829.298 2212.57,832.631 2213.5,836.5C 2216.5,836.5 2219.5,836.5 2222.5,836.5C 2218.21,837.632 2213.88,838.966 2209.5,840.5C 2210.66,839.05 2210.16,838.05 2208,837.5C 2207.5,835.527 2207.34,833.527 2207.5,831.5C 2202.66,832.379 2197.99,833.879 2193.5,836C 2189.26,836.918 2185.26,836.418 2181.5,834.5C 2177.3,837.089 2177.63,838.756 2182.5,839.5C 2182.5,840.833 2182.5,842.167 2182.5,843.5C 2181.13,843.343 2179.79,843.51 2178.5,844C 2179.74,844.232 2180.74,844.732 2181.5,845.5C 2178.34,845.558 2175.34,846.224 2172.5,847.5C 2172.06,847.565 2171.73,847.399 2171.5,847C 2173.89,846.309 2173.89,845.309 2171.5,844C 2167.61,842.86 2164.28,843.693 2161.5,846.5C 2157.58,844.071 2153.91,844.238 2150.5,847C 2147.5,847.333 2144.5,847.667 2141.5,848C 2140.81,849.067 2140.31,850.234 2140,851.5C 2138.99,850.663 2137.82,850.33 2136.5,850.5C 2136.5,851.5 2136.5,852.5 2136.5,853.5C 2131.83,853.5 2127.17,853.5 2122.5,853.5C 2121.48,850.164 2119.14,848.664 2115.5,849C 2116.95,847.883 2118.62,847.216 2120.5,847C 2120.17,846.667 2119.83,846.333 2119.5,846C 2121.66,845.755 2123.33,844.755 2124.5,843C 2129.33,842.038 2134.33,841.705 2139.5,842C 2141.04,840.261 2142.71,838.761 2144.5,837.5C 2147.74,836.483 2150.74,835.15 2153.5,833.5C 2153.83,833.5 2154.17,833.5 2154.5,833.5C 2154.41,834.496 2154.75,835.329 2155.5,836C 2159.3,837.114 2159.3,838.447 2155.5,840C 2155.83,840.333 2156.17,840.667 2156.5,841C 2160.16,841.836 2163.49,841.169 2166.5,839C 2164.26,837.478 2161.93,836.145 2159.5,835C 2164.92,833.046 2170.59,832.046 2176.5,832C 2178.62,831.74 2180.28,830.74 2181.5,829C 2187.66,828.786 2193.66,827.786 2199.5,826C 2201.61,825.576 2202.45,824.409 2202,822.5C 2200.3,821.594 2198.47,821.261 2196.5,821.5C 2198.83,820.141 2201.16,818.641 2203.5,817C 2207.17,816.429 2210.5,815.263 2213.5,813.5C 2215.28,813.107 2216.95,812.441 2218.5,811.5 Z"/></g>
<g><path style="opacity:0.043" fill="#a9e9e9" d="M 2252.5,827.5 C 2254.17,827.5 2255.83,827.5 2257.5,827.5C 2242.05,832.326 2226.38,837.159 2210.5,842C 2206.21,842.923 2201.88,843.423 2197.5,843.5C 2201.4,842.068 2205.4,841.068 2209.5,840.5C 2213.88,838.966 2218.21,837.632 2222.5,836.5C 2226.59,834.832 2230.92,833.665 2235.5,833C 2236.07,832.005 2236.73,831.172 2237.5,830.5C 2242.71,830.141 2247.71,829.141 2252.5,827.5 Z"/></g>
<g><path style="opacity:1" fill="#7be1e0" d="M 2153.5,833.5 C 2150.74,835.15 2147.74,836.483 2144.5,837.5C 2141.83,837.5 2139.17,837.5 2136.5,837.5C 2136.61,836.883 2136.94,836.383 2137.5,836C 2139.47,835.505 2141.47,835.338 2143.5,835.5C 2146.88,834.924 2150.21,834.257 2153.5,833.5 Z"/></g>
<g><path style="opacity:1" fill="#2bcecc" d="M 2209.5,840.5 C 2200.5,840.058 2192.17,841.724 2184.5,845.5C 2183.5,845.5 2182.5,845.5 2181.5,845.5C 2180.74,844.732 2179.74,844.232 2178.5,844C 2179.79,843.51 2181.13,843.343 2182.5,843.5C 2182.5,842.167 2182.5,840.833 2182.5,839.5C 2177.63,838.756 2177.3,837.089 2181.5,834.5C 2185.26,836.418 2189.26,836.918 2193.5,836C 2197.99,833.879 2202.66,832.379 2207.5,831.5C 2207.34,833.527 2207.5,835.527 2208,837.5C 2210.16,838.05 2210.66,839.05 2209.5,840.5 Z"/></g>
<g><path style="opacity:1" fill="#6ed7d9" d="M 2209.5,840.5 C 2205.4,841.068 2201.4,842.068 2197.5,843.5C 2193.15,844.086 2188.81,844.752 2184.5,845.5C 2192.17,841.724 2200.5,840.058 2209.5,840.5 Z"/></g>
<g><path style="opacity:0.02" fill="#acede9" d="M 2136.5,837.5 C 2134.5,838.148 2132.5,838.981 2130.5,840C 2120.3,842.237 2109.97,844.07 2099.5,845.5C 2095.17,846.167 2090.83,846.833 2086.5,847.5C 2086.61,846.883 2086.94,846.383 2087.5,846C 2091.98,845.855 2096.32,845.022 2100.5,843.5C 2101.45,843.987 2102.45,844.32 2103.5,844.5C 2110.6,843.265 2117.43,841.265 2124,838.5C 2125.55,839.684 2127.05,839.517 2128.5,838C 2131.15,837.503 2133.81,837.336 2136.5,837.5 Z"/></g>
<g><path style="opacity:1" fill="#37d3ce" d="M 2172.5,847.5 C 2172.39,848.117 2172.06,848.617 2171.5,849C 2161.82,850.75 2152.15,852.25 2142.5,853.5C 2140.5,853.5 2138.5,853.5 2136.5,853.5C 2136.5,852.5 2136.5,851.5 2136.5,850.5C 2137.82,850.33 2138.99,850.663 2140,851.5C 2140.31,850.234 2140.81,849.067 2141.5,848C 2144.5,847.667 2147.5,847.333 2150.5,847C 2153.91,844.238 2157.58,844.071 2161.5,846.5C 2164.28,843.693 2167.61,842.86 2171.5,844C 2173.89,845.309 2173.89,846.309 2171.5,847C 2171.73,847.399 2172.06,847.565 2172.5,847.5 Z"/></g>
<g><path style="opacity:1" fill="#41d4d1" d="M 2136.5,837.5 C 2139.17,837.5 2141.83,837.5 2144.5,837.5C 2142.71,838.761 2141.04,840.261 2139.5,842C 2134.33,841.705 2129.33,842.038 2124.5,843C 2123.33,844.755 2121.66,845.755 2119.5,846C 2119.83,846.333 2120.17,846.667 2120.5,847C 2118.62,847.216 2116.95,847.883 2115.5,849C 2119.14,848.664 2121.48,850.164 2122.5,853.5C 2118.65,853.597 2114.82,853.931 2111,854.5C 2109.01,854.569 2107.51,855.235 2106.5,856.5C 2098.5,856.5 2090.5,856.5 2082.5,856.5C 2081.4,855.603 2081.4,854.77 2082.5,854C 2089.3,852.321 2096.14,852.154 2103,853.5C 2107.06,852.924 2110.89,851.757 2114.5,850C 2111.55,847.241 2108.22,846.741 2104.5,848.5C 2102.08,848.511 2100.42,847.511 2099.5,845.5C 2109.97,844.07 2120.3,842.237 2130.5,840C 2132.5,838.981 2134.5,838.148 2136.5,837.5 Z"/></g>
<g><path style="opacity:0.061" fill="#adeded" d="M 2197.5,843.5 C 2194.39,844.981 2191.06,846.148 2187.5,847C 2171.75,849.903 2156.09,852.737 2140.5,855.5C 2139.27,855.48 2138.27,855.147 2137.5,854.5C 2139.41,854.784 2141.08,854.451 2142.5,853.5C 2152.15,852.25 2161.82,850.75 2171.5,849C 2172.06,848.617 2172.39,848.117 2172.5,847.5C 2175.34,846.224 2178.34,845.558 2181.5,845.5C 2182.5,845.5 2183.5,845.5 2184.5,845.5C 2188.81,844.752 2193.15,844.086 2197.5,843.5 Z"/></g>
<g><path style="opacity:0.856" fill="#6ec1c8" d="M 144.5,845.5 C 144.243,851.688 143.577,857.688 142.5,863.5C 142.334,858.489 142.501,853.489 143,848.5C 143.232,847.263 143.732,846.263 144.5,845.5 Z"/></g>
<g><path style="opacity:1" fill="#58d4d7" d="M 2099.5,845.5 C 2100.42,847.511 2102.08,848.511 2104.5,848.5C 2108.22,846.741 2111.55,847.241 2114.5,850C 2110.89,851.757 2107.06,852.924 2103,853.5C 2096.14,852.154 2089.3,852.321 2082.5,854C 2081.4,854.77 2081.4,855.603 2082.5,856.5C 2075.83,856.5 2069.17,856.5 2062.5,856.5C 2062.5,855.5 2062.5,854.5 2062.5,853.5C 2070.05,850.45 2078.05,848.45 2086.5,847.5C 2090.83,846.833 2095.17,846.167 2099.5,845.5 Z"/></g>
<g><path style="opacity:1" fill="#78e0df" d="M 2122.5,853.5 C 2127.17,853.5 2131.83,853.5 2136.5,853.5C 2138.5,853.5 2140.5,853.5 2142.5,853.5C 2141.08,854.451 2139.41,854.784 2137.5,854.5C 2136.83,854.5 2136.17,854.5 2135.5,854.5C 2125.72,854.31 2116.05,854.977 2106.5,856.5C 2107.51,855.235 2109.01,854.569 2111,854.5C 2114.82,853.931 2118.65,853.597 2122.5,853.5 Z"/></g>
<g><path style="opacity:1" fill="#90e6e5" d="M 2062.5,853.5 C 2062.5,854.5 2062.5,855.5 2062.5,856.5C 2069.17,856.5 2075.83,856.5 2082.5,856.5C 2090.5,856.5 2098.5,856.5 2106.5,856.5C 2105.43,857.434 2104.1,857.768 2102.5,857.5C 2100.5,857.5 2098.5,857.5 2096.5,857.5C 2084.83,857.5 2073.17,857.5 2061.5,857.5C 2061.23,855.901 2061.57,854.568 2062.5,853.5 Z"/></g>
<g><path style="opacity:0.007" fill="#c2f0f1" d="M 2135.5,854.5 C 2132.33,856.825 2128.83,857.158 2125,855.5C 2117.43,857.477 2109.93,858.144 2102.5,857.5C 2104.1,857.768 2105.43,857.434 2106.5,856.5C 2116.05,854.977 2125.72,854.31 2135.5,854.5 Z"/></g>
<g><path style="opacity:0.024" fill="#b9edee" d="M 2086.5,847.5 C 2078.05,848.45 2070.05,850.45 2062.5,853.5C 2061.57,854.568 2061.23,855.901 2061.5,857.5C 2073.17,857.5 2084.83,857.5 2096.5,857.5C 2090.5,858.317 2084.33,858.984 2078,859.5C 2072.98,858.296 2067.98,858.296 2063,859.5C 2061.37,859.122 2059.87,858.456 2058.5,857.5C 2059.6,855.358 2060.6,853.192 2061.5,851C 2069.63,848.98 2077.97,847.813 2086.5,847.5 Z"/></g>
<g><path style="opacity:1" fill="#36acb5" d="M 832.5,837.5 C 835.143,855.289 837.143,873.289 838.5,891.5C 837.379,889.046 836.546,886.379 836,883.5C 834.504,868.192 833.337,852.859 832.5,837.5 Z"/></g>
</svg>
